<?xml version="1.0" standalone="no"?>
<!DOCTYPE svg PUBLIC "-//W3C//DTD SVG 20010904//EN"
 "http://www.w3.org/TR/2001/REC-SVG-20010904/DTD/svg10.dtd">
<svg version="1.0" xmlns="http://www.w3.org/2000/svg"
 width="296.000000pt" height="297.000000pt" viewBox="0 0 296.000000 297.000000"
 preserveAspectRatio="xMidYMid meet">
<metadata>
Created by potrace 1.16, written by Peter Selinger 2001-2019
</metadata>
<g transform="translate(0.000000,297.000000) scale(0.100000,-0.100000)"
fill="#000000" stroke="none">
<path d="M1119 2176 c-3 -4 -220 -7 -482 -8 -363 0 -483 -4 -501 -13 -14 -7
-27 -10 -31 -7 -3 4 -3 -1 0 -10 4 -9 -4 -33 -19 -57 -14 -22 -26 -43 -26 -46
0 -3 -9 -18 -19 -33 -23 -32 -41 -232 -21 -232 6 0 10 -8 9 -17 -2 -10 2 -28
9 -40 8 -15 9 -23 2 -23 -5 0 -10 4 -10 9 0 5 -7 11 -15 15 -13 5 -15 -94 -15
-854 l0 -860 1480 0 1481 0 -4 908 c-2 499 -7 930 -10 957 -8 64 -32 127 -57
150 -11 10 -20 25 -20 33 0 17 -82 102 -99 102 -6 0 -11 4 -11 9 0 6 -98 9
-246 9 -198 -1 -248 -4 -260 -15 -13 -13 -18 -10 -15 9 0 3 -178 6 -397 6
-218 -1 -469 3 -557 7 -88 4 -163 4 -166 1z m-499 -101 l0 -45 -70 0 c-66 0
-70 -1 -70 -22 -1 -13 -1 -94 0 -180 l1 -157 -88 -3 c-51 -2 -91 1 -95 7 -4 6
-7 83 -7 172 0 89 -2 167 -6 174 -5 7 -28 10 -66 7 l-59 -4 0 48 0 48 230 0
230 0 0 -45z m540 0 l0 -45 -160 0 -160 0 0 -45 0 -44 68 -3 67 -3 3 -42 3
-43 -70 0 -71 0 0 -45 0 -45 155 0 155 0 0 -45 0 -45 -209 0 c-115 0 -216 -3
-225 -6 -12 -4 -16 0 -16 15 0 14 -6 21 -20 21 -19 0 -20 7 -20 185 0 178 1
185 20 185 15 0 20 7 20 25 l0 25 230 0 230 0 0 -45z m500 20 c0 -18 5 -25 20
-25 18 0 20 -7 20 -65 0 -63 -1 -65 -25 -65 -21 0 -25 -5 -25 -30 0 -28 -2
-29 -20 -18 -11 7 -21 24 -21 38 -1 17 -3 19 -6 8 -3 -14 -16 -18 -51 -19
l-47 -1 45 -12 c51 -13 110 -42 110 -55 0 -5 7 -8 16 -7 24 2 29 -21 6 -28
-17 -6 -20 -16 -19 -74 l0 -67 -69 -6 c-38 -3 -72 -4 -76 -2 -5 2 -8 44 -8 94
l0 89 -66 0 -67 0 6 -90 7 -90 -79 0 c-44 0 -86 -3 -95 -6 -14 -5 -16 18 -16
225 l0 231 230 0 230 0 0 -25z m540 0 c0 -18 5 -25 20 -25 18 0 20 -7 20 -65
0 -58 -2 -65 -20 -65 -17 0 -20 -7 -20 -45 0 -38 3 -45 20 -45 19 0 20 -7 20
-90 l0 -90 -52 0 c-31 1 -61 7 -72 15 -25 19 -42 19 -27 1 9 -11 8 -15 -5 -20
-9 -4 -19 -5 -21 -3 -2 2 -5 44 -6 93 l-3 89 -65 0 -64 0 3 -87 3 -87 -92 -3
c-50 -2 -92 -1 -94 1 -3 2 -4 104 -5 227 l0 224 230 0 230 0 0 -25z m542 3 c2
-13 9 -24 16 -24 6 -1 17 -2 22 -3 6 -1 10 -75 10 -201 l0 -200 -79 0 c-44 0
-86 -3 -95 -6 -14 -5 -16 6 -16 90 l0 96 -64 0 c-76 0 -78 -2 -69 -105 l6 -74
-92 -3 c-51 -2 -95 -1 -97 1 -9 10 -4 401 6 402 6 1 16 2 23 3 6 0 13 11 15
24 3 22 3 22 207 22 204 0 204 0 207 -22z m-2122 -753 c0 -18 5 -25 20 -25 18
0 20 -7 20 -70 l0 -70 -90 0 -90 0 0 44 c0 41 -2 44 -31 50 -54 10 -96 7 -102
-9 -4 -8 -3 -68 0 -135 l6 -120 49 -1 c26 -1 54 -2 61 -3 7 -1 13 15 15 42 l3
42 90 0 89 0 0 -33 c0 -25 -6 -37 -22 -45 l-23 -11 23 0 c29 -1 32 -41 2 -41
-13 0 -20 -7 -20 -19 0 -25 -15 -30 -77 -24 -34 4 -54 11 -58 21 -7 20 -3 23
44 29 22 3 45 11 50 17 7 9 -12 7 -65 -3 -70 -15 -75 -17 -69 -38 5 -23 4 -23
-92 -23 -54 0 -108 -3 -120 -6 -16 -4 -23 0 -28 15 -3 12 -15 21 -26 21 -18 0
-19 9 -19 180 l0 180 25 10 c15 6 25 17 25 30 0 19 6 20 205 20 l205 0 0 -25z
m540 0 c0 -20 5 -25 25 -25 23 0 25 -3 25 -49 0 -62 -7 -81 -31 -81 -16 0 -19
-7 -19 -44 0 -35 4 -45 20 -49 18 -5 20 -14 20 -91 0 -47 -3 -86 -7 -86 -5 0
-45 -2 -90 -3 l-82 -4 -3 91 -3 91 -62 3 c-72 3 -66 13 -67 -108 l-1 -75 -90
1 -90 1 -2 214 c-2 118 -1 220 2 227 3 9 59 12 230 12 l225 0 0 -25z m542 3
c2 -15 11 -24 27 -26 24 -4 24 -5 17 -85 -3 -45 -6 -120 -6 -165 0 -78 -2 -84
-22 -90 l-22 -5 22 -8 c26 -10 29 -44 5 -53 -19 -8 -46 21 -39 40 3 7 -5 14
-16 17 -18 5 -20 2 -14 -24 4 -24 2 -29 -13 -29 -10 0 -33 -3 -50 -6 l-32 -7
2 85 c1 47 -1 90 -4 96 -11 17 -109 21 -139 6 -32 -16 -36 -24 -10 -18 15 4
17 -5 20 -79 l3 -84 -90 1 c-79 1 -91 3 -95 20 -4 15 -1 348 3 379 1 4 8 7 16
7 9 0 20 11 25 25 l10 25 199 0 c199 0 200 0 203 -22z m588 -23 l0 -44 -157
-3 -158 -3 -3 -42 -3 -42 68 -3 68 -3 3 -42 3 -43 -70 0 -71 0 0 -93 0 -93
-90 1 -91 0 3 40 c2 31 7 40 23 43 55 8 65 13 65 34 0 11 11 36 26 55 14 18
21 33 15 33 -15 0 -51 -55 -51 -78 0 -14 -10 -22 -40 -30 l-40 -10 0 159 c0
152 1 159 20 159 13 0 20 7 20 18 0 10 3 22 7 25 3 4 107 7 230 7 l223 0 0
-45z m500 0 l0 -45 -70 0 c-66 0 -70 -1 -71 -22 0 -13 -1 -95 -2 -183 l-2
-160 -90 1 -90 1 -3 176 -2 176 -29 6 c-16 3 -45 3 -65 -1 l-36 -6 0 44 c0 25
3 48 7 51 3 4 107 7 230 7 l223 0 0 -45z"/>
</g>
</svg>
