<?xml version="1.0" standalone="yes"?>
<svg width="1144" height="637">
<path style="fill:#ffffff; stroke:none;" d="M0 0L0 637L1144 637L1144 0L0 0z"/>
<path style="fill:#90cf42; stroke:none;" d="M317 72L317 137L810 137L810 72L317 72z"/>
<path style="fill:#7acd2c; stroke:none;" d="M317 137L317 138L810 138C798.782 133.293 779.206 137 767 137L666 137L317 137z"/>
<path style="fill:#62ba13; stroke:none;" d="M317 138L317 140L810 140L810 138L317 138z"/>
<path style="fill:#53bb02; stroke:none;" d="M317 140L317 228L328 228C326.175 220.205 329.284 206.037 338.209 202.585C343.709 200.458 352.157 202 358 202L401 202L549 202C558.827 202 569.236 201.017 579 202.129C585.936 202.919 592.775 206.616 600 205.612C621.392 202.638 642.026 202 664 202C673.979 202 684.146 199.965 692 207L691 209L702.001 202.303L727 202L779 202L779 205L784 205L784 209L790 209L793 228L810 228L810 140L317 140z"/>
<path style="fill:#5a9b1d; stroke:none;" d="M332 215L340.188 204.603L365 204L425.914 206.442L455 203L584 204C579.739 200.772 573.162 202 568 202L531 202L386 202L353 202C348.368 202 341.72 200.796 337.376 202.585C331.911 204.835 331.472 209.972 332 215z"/>
<path style="fill:#599f21; stroke:none;" d="M610 202L610 203L678 203.17L692 207C686.418 199.955 677.153 202 669 202L610 202z"/>
<path style="fill:#5a9b1e; stroke:none;" d="M693 211C697.628 209.44 699.916 204.922 705 203.684C726.659 198.411 754.696 203 777 203L788.143 216.34L789 228L793 228L790 209L784 209L784 205L779 205L779 202L715 202C706.233 202 695.677 200.329 693 211z"/>
<path style="fill:#446929; stroke:none;" d="M435 203L435 204L537 204L506 203L435 203z"/>
<path style="fill:#537b26; stroke:none;" d="M604 203L604 204L681 204L657 203L604 203M705 203L705 204L777 205L777 203L705 203z"/>
<path style="fill:#265408; stroke:none;" d="M336 214L337 214C337.834 202.941 348.653 205 357 205L420 205C413.806 202.401 404.686 204 398 204L359 204C353.26 204 345.721 202.708 340.189 204.318C335.895 205.568 336.041 210.352 336 214z"/>
<path style="fill:#164306; stroke:none;" d="M435 204L435 205L597 206C583.23 200.209 561.771 204 547 204L435 204z"/>
<path style="fill:#265408; stroke:none;" d="M603 204L603 205L687 205L661 204L603 204M696 211L697 211C703.066 203.573 711.224 205 720 205L773 205C767.537 202.708 759.887 204 754 204L713 204C705.8 204 698.784 203.007 696 211z"/>
<path style="fill:#062200; stroke:none;" d="M336 228L338 228C338 222.485 336.073 212.563 340.318 208.318C344.81 203.825 356.151 206 362 206L420 206C414.293 203.605 406.154 205 400 205L359 205C353.798 205 343.549 203.06 339.317 206.603C334.294 210.809 336 222.194 336 228z"/>
<path style="fill:#020101; stroke:none;" d="M427 311L427 315C455.251 315.019 483.667 316 512 316C526.565 316 541.853 318.193 555 312L556 292L557 292L557 294L558 294C557.217 289.043 557.649 287.369 563 287L564 315C582.99 315.815 601.943 316 621 316C626.063 316 637.31 318.101 641.232 314.397C647.456 308.519 645 294.645 645 287C660.296 286.768 644.137 313.367 660.001 315.852C676.496 318.435 695.29 316 712 316C717.62 316 726.833 317.749 731.695 314.486C737.906 310.319 735.885 301.393 736.005 295C736.048 292.672 735.975 288.171 739.089 287.631C742.429 287.052 742.886 291.811 742.981 294C743.229 299.717 740.313 312.915 747.329 315.486C751.557 317.035 757.553 316 762 316C767.492 316 778.69 318.134 783.366 314.976C788.84 311.28 788 303.636 788 298L788 254C788 237.776 792.748 217.708 778.406 206.728C773.817 203.214 764.48 205 759 205C741.495 205 722.331 202.778 705.001 205.189C700.733 205.783 697.031 211.584 693.129 211.083C689.612 210.63 688.94 205.712 684.906 205.133C656.584 201.069 626.172 207.008 597.961 206.447C541.498 205.323 483.133 201.027 426.83 206.12C406.648 207.946 385.293 206 365 206C358.643 206 346.733 203.721 341.148 207.028C336.887 209.551 338.026 215.834 337.999 220C337.932 230.395 333.689 241.303 336.303 251.907C339.1 263.25 354.774 252.852 358.397 261.148C362.645 270.878 358.95 289.379 359.001 300C359.02 304.006 358.521 312.293 362.318 314.821C367.239 318.098 378.282 316 384 316C389.103 316 395.909 317.04 400.471 314.231C405.664 311.035 405 304.247 405 299C405.001 287.449 403.296 274.415 405.148 263.019C406.014 257.693 414.658 255.865 418.397 259.603C420.981 262.188 420 267.694 420 271C420 280.683 415.274 307.138 427 311z"/>
<path style="fill:#325034; stroke:none;" d="M597 206L597 207L602 207L597 206z"/>
<path style="fill:#3c6424; stroke:none;" d="M779 206L783 211L779 206z"/>
<path style="fill:#2c4a19; stroke:none;" d="M690 208C691.099 211.321 692.59 211.737 696 212L696 211L690 208z"/>
<path style="fill:#1b1824; stroke:none;" d="M346 209L346 210L420 210L397 209L346 209M435 209L435 210L510 210L487 209L435 209z"/>
<path style="fill:#191821; stroke:none;" d="M519 209L519 210L593 210L570 209L519 209z"/>
<path style="fill:#1b1824; stroke:none;" d="M609 209L609 210L683 210L660 209L609 209M707 209L707 210L770 210L750 209L707 209z"/>
<path style="fill:#3f9c01; stroke:none;" d="M335 210L332 215L332 211L330 211C328.383 217.887 325.417 220.767 328 228L336 229L335 210z"/>
<path style="fill:#847f91; stroke:none;" d="M344 210L344 211L420 211L396 210L344 210z"/>
<path style="fill:#4d4c4e; stroke:none;" d="M420 210L420 225L421 225L420 210z"/>
<path style="fill:#857f91; stroke:none;" d="M434 210L434 211L510 211L486 210L434 210z"/>
<path style="fill:#575a46; stroke:none;" d="M510 210L510 225L511 225L510 210z"/>
<path style="fill:#837e91; stroke:none;" d="M517 210L517 211L592 211L592 218L593 218L593 210L517 210z"/>
<path style="fill:#484636; stroke:none;" d="M593 210L593 218L600 218L600 217L594 217L593 210z"/>
<path style="fill:#857f91; stroke:none;" d="M607 210L607 211L683 211L659 210L607 210z"/>
<path style="fill:#686455; stroke:none;" d="M683 210L683 216L684 216L683 210z"/>
<path style="fill:#6b5f6f; stroke:none;" d="M705 210L704 217L705 217L707 210L705 210z"/>
<path style="fill:#857f91; stroke:none;" d="M707 210L707 211L773 211L752 210L707 210z"/>
<path style="fill:#7e7b83; stroke:none;" d="M343 211L343 225L344 225L343 211z"/>
<path style="fill:#fefdff; stroke:none;" d="M344 211L344 225C349.918 224.533 361.946 221.191 365.972 227.394C368.307 230.991 367 237.871 367 242L382 243C382.365 235.137 392.058 222.517 384 216L384 215L389 215C391.862 226.68 408.962 219.739 417 218L417 223L418 223L419 211L344 211z"/>
<path style="fill:#c6c9be; stroke:none;" d="M419 211C418.998 228.49 405.715 223.267 392 225L392 229C401.083 224.045 409.877 225 420 225L419 211z"/>
<path style="fill:#737063; stroke:none;" d="M433 211L433 218L434 218L433 211z"/>
<path style="fill:#e6e9e0; stroke:none;" d="M434 211L434 218L435 218L435 212L508 212L508 220L451 223L450 238L456 239C454.043 233.992 451.509 229.225 457.189 225.514C461.387 222.771 468.213 224 473 224L509 224L509 211L434 211z"/>
<path style="fill:#c3c5bb; stroke:none;" d="M509 211L509 224L457 224L457 225L510 225L509 211z"/>
<path style="fill:#737373; stroke:none;" d="M516 211L516 285L547 285L547 284L517 284L517 234L516 211z"/>
<path style="fill:#eceaf3; stroke:none;" d="M517 211L517 265C517 270.06 514.986 280.492 519 284C513.772 262.041 518 234.579 518 212L591 212L591 217L585 213L586 223L584 235L585 235L585 231L587 231C587.137 235.176 587.638 237.272 592 238C595.909 230.854 598.999 227.668 599 219C593.572 218.586 592.171 216.256 592 211L517 211z"/>
<path style="fill:#606060; stroke:none;" d="M606 211L606 258L607 258C607 244.735 611.11 223.176 606 211z"/>
<path style="fill:#cacaca; stroke:none;" d="M607 211L607 247C607 250.88 605.417 257.018 610 258L610 257L608 244L609 211L607 211z"/>
<path style="fill:#fefefe; stroke:none;" d="M608 257L628 252C628 247.597 633.327 238.142 628 237C628.93 233.092 627.653 225.631 630.603 222.742C635.011 218.428 654.802 220.677 658.347 225.475C661.267 229.425 660 236.358 660 241C650.023 241 635.3 237.167 632 249C638.08 249 653.922 246.187 658.026 251.434C664.539 259.759 655.884 276.782 663 283L662 278L683.397 276.821L689 256L681 253L675 254C674.513 242.652 672.645 234.988 686 232L686 228L689 228L690 219C684.16 218.81 682.19 216.84 682 211L628 211L609.028 212.603L608 225L608 257z"/>
<path style="fill:#d6d3ca; stroke:none;" d="M682 211L682 218L683 218L682 211z"/>
<path style="fill:#ece8f4; stroke:none;" d="M706 211L706 212L770 212L750 211L706 211z"/>
<path style="fill:#fefefe; stroke:none;" d="M706 212L698.148 223.059L698 284C701.528 282.278 703.949 278.497 708 277.417C711.195 276.565 718.099 278.561 720.278 275.667C724.497 270.06 716.214 253.546 723.111 249.75C728.173 246.964 742.516 249.226 749 248L750.942 260.004L751 283L752 283L757 280C759.773 273.978 766.16 274.654 772 275L774 247L759 240.785L747 245L749 241L721 238L723.589 223.742L748 221L747 224C752.811 227.204 751.342 235.362 750 241L777 242L777 229L778 229L778 242L779 242L779 219C773.42 218.573 772.757 216.21 773 211L706 212z"/>
<path style="fill:#858292; stroke:none;" d="M773 211L773 217L774 217L773 211z"/>
<path style="fill:#fdfdfd; stroke:none;" d="M435 212C434.586 217.428 432.256 218.829 427 219L427 246C431.462 242.732 434.443 235.411 435 230L440 231L440 224C444.502 226.5 443.194 230.012 440.736 233.95C438.063 238.232 433.524 240.94 431.242 245.576C426.403 255.408 427 266.222 427 277L436 277L436 281C444.186 276.885 448.779 279.739 457 279.742C472.488 279.749 488.568 280.168 504 277L504 274L508 274L508 270L469 270C463.596 270 457.854 271.106 456 265L452 265L452 254L479 254L477.972 242.603L471 241.001L450 238L451 223L508 220L508 212L435 212z"/>
<path style="fill:#181818; stroke:none;" d="M515 212L515 282L516 282L516 234L515 212z"/>
<path style="fill:#fefefe; stroke:none;" d="M518 212L518 283L526.054 277.603L543 278C538.682 269.021 539 260.826 539 251L569 250L570 284C579.148 278.185 581.771 279.698 592 280C592.005 273.02 594.988 261.858 592.357 255.379C588.828 246.687 574.265 247.235 567 244.826C563.979 243.825 561.225 241.598 558 241.332C555.317 241.11 552.552 242.325 550 243C548.945 236.156 537.541 237.026 540.218 226.023C541.779 219.607 549.507 223.046 554 222.921C566.783 222.566 574.128 228.104 568 242L583 243L586 223C589.299 220.072 586.384 216.406 585 213L591 217L591 212L518 212z"/>
<path style="fill:#cccbd0; stroke:none;" d="M705 212L698 220C702.679 218.827 707.352 217.81 705 212z"/>
<path style="fill:#271810; stroke:none;" d="M786 213C789.34 227.214 788 242.357 788 257C788 277.094 789.696 296.993 784 316L785 316C790.414 308.114 789 299.203 789 290L789 238C789 230.848 791.562 218.292 786 213z"/>
<path style="fill:#eae8ee; stroke:none;" d="M384 215L384 216C391.32 224.942 382.837 235.406 385.773 244.815C387.912 251.671 394.901 251.133 395 260L396 260L392 225L418 224L417 218C408.083 219.236 393.593 226.579 389 215L384 215z"/>
<path style="fill:#c9c9c9; stroke:none;" d="M772 215C773.343 219.046 776.065 218.953 780 219L780 283C772.119 282.973 757.726 274.16 752 283L751 283L751 255L750 255L750 285L760 281.41L781 284L781 218L772 215z"/>
<path style="fill:#95959e; stroke:none;" d="M683 216C683.796 219.716 686.637 219 690 219L690 232L691 232L691 218L683 216z"/>
<path style="fill:#343339; stroke:none;" d="M684 217L684 218L690 218L684 217z"/>
<path style="fill:#474747; stroke:none;" d="M696 284L697 284L697 234C697 227.1 695.098 218.679 704 218C694.346 213.993 696 226.017 696 232L696 284z"/>
<path style="fill:#685462; stroke:none;" d="M774 217L774 218L780 218L774 217z"/>
<path style="fill:#93919c; stroke:none;" d="M427 218L427 219L434 219L427 218z"/>
<path style="fill:#95949d; stroke:none;" d="M593 218L593 219L600 219L593 218z"/>
<path style="fill:#444444; stroke:none;" d="M600 218L600 239L601 239L600 218z"/>
<path style="fill:#39393c; stroke:none;" d="M691 218L691 232L692 232L691 218z"/>
<path style="fill:#676767; stroke:none;" d="M781 218L781 284L782 284L782 239L781 218z"/>
<path style="fill:#2c2c2c; stroke:none;" d="M425 219L425 252L426 252L425 219z"/>
<path style="fill:#878787; stroke:none;" d="M426 219L426 246L427 246L426 219z"/>
<path style="fill:#c2c5bb; stroke:none;" d="M599 219L599 229L600 229L599 219z"/>
<path style="fill:#b0b0b0; stroke:none;" d="M697 219L697 284L698 284L698 240L697 219z"/>
<path style="fill:#edece8; stroke:none;" d="M779 219L779 242L778 242L778 229L777 229L777 242L768 242L768 243L778 243L778 245L767 245L767 246L774 247L772 275C766.532 274.13 758.769 273.742 757 280L780 283L780 239L779 219z"/>
<path style="fill:#eef0e8; stroke:none;" d="M628 237L632 239L633 224L659 225C654.553 221.439 634.241 217.535 630.028 222.742C627.666 225.662 628.695 233.259 628 237z"/>
<path style="fill:#e5e8e1; stroke:none;" d="M724 222L724 223L750 226L750 240L751 240C751 234.738 753.023 225.999 747 224L748 221L724 222z"/>
<path style="fill:#dfe2d8; stroke:none;" d="M550 243L560 241L560 240L543 237L543 226L566 224L566 222L551 223L541 222L540 236L550 243z"/>
<path style="fill:#eaeaea; stroke:none;" d="M689 222L689 228L686 228L686 232C672.293 233.815 674.128 242.948 675 254L681 255L682 255L681 248C677.087 247.489 676.966 240.968 679.5 238.333C681.327 236.433 687.344 235.873 690 235L689 222z"/>
<path style="fill:#cfcccf; stroke:none;" d="M722 223L721 238L726 238L724 228L746 225L722 223z"/>
<path style="fill:#141414; stroke:none;" d="M782 223L782 284L783 284L783 243L782 223z"/>
<path style="fill:#bcbfb7; stroke:none;" d="M348 224L348 225L363 225L348 224z"/>
<path style="fill:#c7c7c6; stroke:none;" d="M440 227L443 226L443 230C445.053 226.395 441.119 221.804 440 227z"/>
<path style="fill:#bfc2b8; stroke:none;" d="M547 226L567 225C562.604 223.155 550.286 222.24 547 226z"/>
<path style="fill:#aaaaaa; stroke:none;" d="M633 224L633 237C638.989 232.682 635.063 225.323 645 225L633 224z"/>
<path style="fill:#c4c7bf; stroke:none;" d="M645 224L645 225L654 225L645 224z"/>
<path style="fill:#252525; stroke:none;" d="M343 225C343 230.002 340.433 245.669 344.603 248.972C348.598 252.136 360.059 250 365 250L365 227L343 225z"/>
<path style="fill:#848184; stroke:none;" d="M344 225L344 226L365 226L344 225z"/>
<path style="fill:#8d8b8e; stroke:none;" d="M397 225L397 226L420 226L397 225z"/>
<path style="fill:#191919; stroke:none;" d="M420 225L398 227L398 267C398 271.261 399.477 279.037 396.397 282.451C392.334 286.952 384.386 286 379 286C374.515 286 369.691 286.796 366 284L365 284C365 289.844 362.443 303.679 366.179 308.397C369.707 312.851 387.584 310 393 310C393 302.734 390.508 290.379 396 285L396 307L399 307L399 251C404.018 251 413.273 252.784 417.606 249.972C423.056 246.434 422.192 230.223 420 225z"/>
<path style="fill:#7f7c7c; stroke:none;" d="M456 225L456 239L457 239L457 226L510 226L492 225L456 225z"/>
<path style="fill:#1c1c1c; stroke:none;" d="M510 225L494 227L458 227L458 239C470.242 239 480.998 235.874 481 251L510 250L510 225z"/>
<path style="fill:#7e7b7b; stroke:none;" d="M548 225L548 226L568 226L548 225z"/>
<path style="fill:#373737; stroke:none;" d="M638 225L633 241L639 239L639 226L645 226L638 225z"/>
<path style="fill:#817f81; stroke:none;" d="M645 225L645 226L659 226L645 225z"/>
<path style="fill:#807d7f; stroke:none;" d="M729 225L729 226L746 226L729 225z"/>
<path style="fill:#6b6b6b; stroke:none;" d="M361 226L361 227L365 227L365 242L366 242L366 226L361 226z"/>
<path style="fill:#aaaaaa; stroke:none;" d="M366 226L366 284L367 284L367 245L376 243L376 242L367 242L366 226z"/>
<path style="fill:#787878; stroke:none;" d="M396 226L396 241L397 241L396 226z"/>
<path style="fill:#3d3a3f; stroke:none;" d="M397 226L397 241L398 241L398 227L419 227L397 226z"/>
<path style="fill:#929192; stroke:none;" d="M441 226L440 227L443 230L443 226L441 226z"/>
<path style="fill:#b4b4b4; stroke:none;" d="M455 226C452.81 230.21 452.471 233.544 456 237L455 226z"/>
<path style="fill:#3e383e; stroke:none;" d="M457 226L457 239L458 239L458 227L510 227L493 226L457 226z"/>
<path style="fill:#aaaaaa; stroke:none;" d="M543 226L543 237L546 237L546 226L543 226z"/>
<path style="fill:#8d8d8d; stroke:none;" d="M546 226L547 239L548 239L546 226z"/>
<path style="fill:#5e5e5e; stroke:none;" d="M547 226L547 231L548 231L547 226z"/>
<path style="fill:#423b41; stroke:none;" d="M548 226L548 231L549 231L549 227L563 227L548 226z"/>
<path style="fill:#575757; stroke:none;" d="M563 226L563 227L568 227L568 239L548 239L548 240L569 240L569 226L563 226z"/>
<path style="fill:#bbbbbb; stroke:none;" d="M569 226L569 240L570 240L569 226z"/>
<path style="fill:#7e7e7e; stroke:none;" d="M637 226L636 232L637 232L637 226z"/>
<path style="fill:#1f1f1f; stroke:none;" d="M639 226L639 239L658 239L658 227L639 226z"/>
<path style="fill:#555555; stroke:none;" d="M645 226L645 227L658 227L658 239L636 239L636 240L659 240L659 226L645 226z"/>
<path style="fill:#939393; stroke:none;" d="M659 226L659 240L660 240L659 226z"/>
<path style="fill:#3f3942; stroke:none;" d="M728 226L728 239L729 239L729 227L747 227L728 226z"/>
<path style="fill:#5d5d5d; stroke:none;" d="M747 226L747 227L749 239L728 239L728 227L727 227L727 240L750 240L750 226L747 226z"/>
<path style="fill:#959595; stroke:none;" d="M394 227L394 238L396 238L396 227L394 227z"/>
<path style="fill:#1d1d1d; stroke:none;" d="M549 227L548 239L568 239L568 227L549 227M729 227L729 239L749 239L749 227L729 227z"/>
<path style="fill:#8c8c20; stroke:none;" d="M317 228L317 229L326 229L317 228z"/>
<path style="fill:#724a2b; stroke:none;" d="M326 228L326 229L331 229C331 235.406 327.851 252.627 335 255L337 265L341 265L351.096 283L351 322L346 322L346 324C351.017 325.118 357.536 328.344 361 323L358 323C360.265 310.774 360.808 287.176 357.683 275.039C356.556 270.662 352.165 268.501 351 264C334.772 254.705 335 245.397 335 228L326 228z"/>
<path style="fill:#afafaf; stroke:none;" d="M393 228C389.094 235.613 394.831 240.719 395.857 248.015C397.436 259.246 396 271.654 396 283L397 283C397 265.407 399.894 244.423 393 228z"/>
<path style="fill:#b6b6b6; stroke:none;" d="M724 228L726 239L727 239L727 228L724 228z"/>
<path style="fill:#7f4b24; stroke:none;" d="M789 228L789 284L788.721 310.91L781 323L786 324L789.687 333.054L791 359L792 359L792 352L793 352L795 374L787.434 387.961L775.86 405.09L774 437L770 437L767 450L766 447L761 447L762 444L757 453L735.17 453.441L716 445L716 437C703.938 430.349 721.172 396.845 697.999 397.019C695.676 397.037 693.257 397.23 691.093 398.148C686.732 399.998 685.076 404.805 681 407C678.736 416.727 671.029 422.725 665.648 430.478C661.368 436.647 662.136 445.011 656.605 450.651C653.497 453.821 649.946 452.778 646.688 455.013C628.98 467.161 605.608 463 584 463L584 458L557 457L557 463L443 461.005L374 462.907L349 459C348.006 453.043 343.023 454.001 338 454L331 447L327.039 428L330 353L333 354L332 343L331 343L325.772 357.039L321 411L317 411L317 497L810 497L810 424L797 424C794.955 404.659 804.143 389.668 804.961 371C805.209 365.339 805.228 354.188 799 352L799 346L796 346L793 323C795.458 322.483 796.523 321.417 794 320L794 319L794 318C796.898 315.441 793 302.519 793 298C792.999 281.613 792 265.387 792 249C792 242.299 793.366 233.548 789 228z"/>
<path style="fill:#939227; stroke:none;" d="M790 228L790 229L810 229L790 228z"/>
<path style="fill:#a76535; stroke:none;" d="M317 229L317 359L318 359L326 337C332.654 336.023 340.305 328.242 342 322L351 322L351.096 282L341 265L337 265L335 255C327.982 251.13 331 236.103 331 229L317 229z"/>
<path style="fill:#593d1e; stroke:none;" d="M335 229L335 251L336 251L335 229z"/>
<path style="fill:#8a8a8a; stroke:none;" d="M385 232L388 232L387 229L385 232z"/>
<path style="fill:#454545; stroke:none;" d="M440 229L439 237L440 237L442 229L440 229z"/>
<path style="fill:#b2b2b2; stroke:none;" d="M598 229L592 235L591 247L586 245L592 249C592.021 243.179 592.492 239.496 599 239L598 229z"/>
<path style="fill:#7a7a7a; stroke:none;" d="M599 229L599 239C592.007 239.23 592.005 242.821 592 249L584 248L592 254L593 254C593 247.51 591.601 240.567 600 241L599 229z"/>
<path style="fill:#a76736; stroke:none;" d="M791 229L793 296L794 318L794 319L794 320C795.501 321.812 795.158 322.022 793 323L796 346L799 346L799 352C804.837 355.407 805.447 365.801 804.829 372C803.032 390.047 793.68 405.281 797 424L810 424L810 229L791 229z"/>
<path style="fill:#d7d7d7; stroke:none;" d="M435 230L435 234L439 233L435 230z"/>
<path style="fill:#666666; stroke:none;" d="M386 231L380 244L380 245L384 245L386 231z"/>
<path style="fill:#a8a8a8; stroke:none;" d="M585 231L586 241L587 241L587 231L585 231z"/>
<path style="fill:#616161; stroke:none;" d="M690 232L687 240L687 241L691 241L690 232z"/>
<path style="fill:#222222; stroke:none;" d="M691 232L691 241L684 240L684 254L692 256L691 232z"/>
<path style="fill:#747474; stroke:none;" d="M436.667 233.333L437.333 233.667L436.667 233.333z"/>
<path style="fill:#888888; stroke:none;" d="M385 234L385 239L386 239L385 234z"/>
<path style="fill:#9d9d9d; stroke:none;" d="M434 234L433 238L434 238L436 234L434 234z"/>
<path style="fill:#0a0a0a; stroke:none;" d="M435 239L439 234L435 239z"/>
<path style="fill:#9f9f9f; stroke:none;" d="M440.333 234.667L440.667 235.333L440.333 234.667z"/>
<path style="fill:#888888; stroke:none;" d="M584 235L583 243L584 243L584 239L585 239L585 245L586 245L586 235L584 235z"/>
<path style="fill:#c8c8c8; stroke:none;" d="M687 235C684.746 236.932 681.792 236.156 679.63 237.889C676.597 240.319 677.247 247.528 681 248L681 252L682 252C682 245.568 681.122 239.601 689 239L689 235L687 235z"/>
<path style="fill:#9a9a9a; stroke:none;" d="M689 235L689 239C680.704 239.272 682 245.263 682 252L683 252C683.001 245.75 682.536 240.569 690 240L689 235z"/>
<path style="fill:#9f9f9f; stroke:none;" d="M382 237L382 242L383 242L382 237z"/>
<path style="fill:#4a4a4a; stroke:none;" d="M434 237L431 243C433.907 241.507 435.505 240.179 434 237z"/>
<path style="fill:#c7c7c7; stroke:none;" d="M587 237C586.389 241.959 585.903 244.863 591 247L592 238L587 237z"/>
<path style="fill:#8c8c8c; stroke:none;" d="M633 237L631 243L635 242L633 237z"/>
<path style="fill:#b6b6b6; stroke:none;" d="M758 237L758 238L761 238L758 237z"/>
<path style="fill:#5a5a5a; stroke:none;" d="M756 239L756 240L767 243C763.653 239.534 760.803 237.736 756 239z"/>
<path style="fill:#b2b2b2; stroke:none;" d="M385 239L384 245L385 245L385 239z"/>
<path style="fill:#9a9a9a; stroke:none;" d="M431.333 239.667L431.667 240.333L431.333 239.667z"/>
<path style="fill:#616161; stroke:none;" d="M457 239L457 240L479 240L457 239z"/>
<path style="fill:#3a3a3a; stroke:none;" d="M584 239C582.341 244.465 578.004 243.996 573 244L573 245L587 248L584 239z"/>
<path style="fill:#252525; stroke:none;" d="M600 239L594 240L594 254C598.599 254.734 599.992 256.704 598 261C604.464 272.624 598 293.951 598 307L600 307L601 260L600 239z"/>
<path style="fill:#999999; stroke:none;" d="M751 243L757 241C754.114 239.205 752.772 240.293 751 243z"/>
<path style="fill:#cacaca; stroke:none;" d="M457 240L457 241L479 242C475.196 237.646 462.561 240 457 240z"/>
<path style="fill:#a7a7a7; stroke:none;" d="M479 240L479 254L480 254L479 240z"/>
<path style="fill:#575757; stroke:none;" d="M480 240L480 254L481 254L480 240z"/>
<path style="fill:#7f7f7f; stroke:none;" d="M560 240L560 241L564 241L560 240z"/>
<path style="fill:#9e9e9e; stroke:none;" d="M560 241L560 242L568 245L565 240L560 241z"/>
<path style="fill:#bebebe; stroke:none;" d="M565 240C567.582 243.654 571.863 242.997 576 243L576 242L568 242L569 240L565 240z"/>
<path style="fill:#cbcbcb; stroke:none;" d="M635 242L660 241C655.135 238.959 638.584 237.898 635 242z"/>
<path style="fill:#c0c0c0; stroke:none;" d="M728 240L728 241L749 241L747 245L752 244L752 241L728 240z"/>
<path style="fill:#676a70; stroke:none;" d="M397 241L397 283L398 283C398 271.043 401.611 251.988 397 241z"/>
<path style="fill:#b7b7b7; stroke:none;" d="M430 241L427 255L433 244L433 243L430 241z"/>
<path style="fill:#444444; stroke:none;" d="M593 241L593 255L599 255L599 254L594 254L593 241z"/>
<path style="fill:#b7b7b7; stroke:none;" d="M630 241L628 252L629 252L629 250L630 250L630 254L631 254L633 244L633 243L630 241z"/>
<path style="fill:#5a5a5a; stroke:none;" d="M683 241L683 254L684 254L683 241z"/>
<path style="fill:#7f7f7f; stroke:none;" d="M765 241L765 242L767 242L767 243L764 243L764 244L770 245L765 241z"/>
<path style="fill:#c4c4c4; stroke:none;" d="M562 242L566 245L562 242z"/>
<path style="fill:#6c6c6c; stroke:none;" d="M371 243L371 246L377 246L377 245L373 245L373 244L378 244L371 243z"/>
<path style="fill:#9b9b9b; stroke:none;" d="M378 243L378 244L382 244L378 243z"/>
<path style="fill:#6a6a6a; stroke:none;" d="M567 243L567 244L576 246L576 245L573 245L573 244L578 244L567 243z"/>
<path style="fill:#979797; stroke:none;" d="M578 243L578 244L583 244L578 243z"/>
<path style="fill:#d5d5d5; stroke:none;" d="M633 243C629.901 249.438 627.547 269.261 636 272L633 270C633 265.927 631.878 259.779 634.028 256.148C637.914 249.585 652.982 253.208 659 254C657.528 245.524 638.756 249 632 249L633 243z"/>
<path style="fill:#b6b8b7; stroke:none;" d="M770 243L770 245L778 245L778 243L770 243z"/>
<path style="fill:#363636; stroke:none;" d="M373 244L373 245L386 248C383.271 243.742 377.675 244.039 373 244z"/>
<path style="fill:#454849; stroke:none;" d="M365 245L365 284L366 284C366 272.828 369.311 255.274 365 245z"/>
<path style="fill:#e7ecea; stroke:none;" d="M367 245L367 273L369 284L368 246L372 247L367 245z"/>
<path style="fill:#fefefe; stroke:none;" d="M368 246L368 283L393 283C393 275.429 391.162 269.066 390.444 261.91C390.124 258.721 391.775 255.537 389.396 252.785C383.934 246.47 375.357 247.366 368 246z"/>
<path style="fill:#c5c5c5; stroke:none;" d="M372 246L372 247L378 247L372 246z"/>
<path style="fill:#8a8a8a; stroke:none;" d="M378 246L378 247L381 247L378 246z"/>
<path style="fill:#686868; stroke:none;" d="M426 246L426 255L427 255L426 246z"/>
<path style="fill:#ababab; stroke:none;" d="M571 246L571 247L581 247L571 246z"/>
<path style="fill:#999999; stroke:none;" d="M381.667 247.333L382.333 247.667L381.667 247.333z"/>
<path style="fill:#c6c6c6; stroke:none;" d="M383 249C393.423 255.432 393 271.233 393 283L396 283C396 273.663 397.147 263.307 394.736 254.185C393.392 249.101 387.427 246.534 383 249z"/>
<path style="fill:#b7b7b7; stroke:none;" d="M581 247L581 248L584 249L581 247z"/>
<path style="fill:#ebebeb; stroke:none;" d="M539 251C539 260.233 537.583 270.022 543 278C536.395 277.982 525.81 274.09 522 281L536 280L536 283L546 283C546 275.598 534.962 256.98 545.189 252.603C548.714 251.095 553.117 252.412 556.83 251.741C560.39 251.097 563.301 250.041 567 250C558.712 246.425 547.503 249.56 539 251z"/>
<path style="fill:#e8e8e8; stroke:none;" d="M700 283C702.901 282.345 705.994 280.437 709 280.638C713.093 280.912 724.539 286.812 727.214 280.687C729.019 276.552 724.195 274.82 722.944 271.66C721.422 267.82 722.36 257.275 725.318 254.318C731.104 248.532 744.27 254.945 749 248L721.603 251.319L719.397 275.397L700 283z"/>
<path style="fill:#c9c9c9; stroke:none;" d="M546 283L536 283L536 284L547 284C547 277.77 543.083 265.314 544.788 260.285C547.24 253.054 563.814 250.427 567.972 257.228C571.653 263.249 569 277.048 569 284L570 284L569 250C563.505 250.001 544.308 250.038 541.858 255.148C537.388 264.471 545.999 273.717 546 283z"/>
<path style="fill:#8b8b8b; stroke:none;" d="M629 250L618 253L618 254L627 253L630 255L629 250z"/>
<path style="fill:#b6b6b6; stroke:none;" d="M726 257L727 257C732.346 251.541 743.07 254.124 750 255C745.84 249.107 728.363 249.879 726 257z"/>
<path style="fill:#bebebe; stroke:none;" d="M589 252L589 253L592 254L589 252z"/>
<path style="fill:#e1e1e1; stroke:none;" d="M615 253L615 254L624 253L615 253z"/>
<path style="fill:#bebebe; stroke:none;" d="M633 270C637.628 272.831 636.997 278.078 637 283L638 283L634 256L655 254L655 252C650.351 252.2 636.749 251.24 634.028 255.318C631.663 258.861 633 265.905 633 270z"/>
<path style="fill:#bfbfbf; stroke:none;" d="M682 252L682 256L689 259L690 259L690 255L682 252z"/>
<path style="fill:#cecece; stroke:none;" d="M727 277L728 277L727 267L724 267C724.008 256.242 727.335 253.001 738 253C721.529 246.089 718.706 267.981 727 277z"/>
<path style="fill:#bebebe; stroke:none;" d="M452 254L452 265L454 265C454.121 254.139 460.813 254 470 254L452 254z"/>
<path style="fill:#2d2d2d; stroke:none;" d="M616 254L616 255C620.088 255.311 624.238 256.612 627 253L616 254z"/>
<path style="fill:#858585; stroke:none;" d="M457 254L457 255L480 255L457 254z"/>
<path style="fill:#1e1e1e; stroke:none;" d="M480 254L459.028 257.603L458 269L481 268L480 254z"/>
<path style="fill:#727272; stroke:none;" d="M548 254L548 255L566 255L548 254z"/>
<path style="fill:#5f5f5f; stroke:none;" d="M606 285L607 285C607 275.104 603.408 261.741 616 260L616 259L612 259L616 255C602.387 251.819 606 277.825 606 285z"/>
<path style="fill:#797979; stroke:none;" d="M638 254L638 255L659 255L638 254z"/>
<path style="fill:#5d5d5d; stroke:none;" d="M684 254L684 255L690 255L684 254z"/>
<path style="fill:#676767; stroke:none;" d="M728 254L728 255L749 256L749 285L750 285L750 255L728 254z"/>
<path style="fill:#2a2a2a; stroke:none;" d="M425 255L425 278L426 278L425 255z"/>
<path style="fill:#898989; stroke:none;" d="M426 255L426 278L427 278L426 255z"/>
<path style="fill:#979797; stroke:none;" d="M456 255C453.822 259.186 452.831 266.917 458.299 269.4C462.022 271.091 467.991 270 472 270L503 270L503 269L471 269L458.603 267.397L456 255z"/>
<path style="fill:#3a3a3a; stroke:none;" d="M457 255L457 268L458 268C458.002 253.096 467.802 256 480 256L457 255z"/>
<path style="fill:#353535; stroke:none;" d="M547 255L548 270L549 270L549 256L567 257L567 268L568 268L568 255L547 255z"/>
<path style="fill:#bbbbbb; stroke:none;" d="M593 255L592 261L595 256L599 256L593 255z"/>
<path style="fill:#919191; stroke:none;" d="M599 255L599 259L600 259L599 255z"/>
<path style="fill:#303030; stroke:none;" d="M612 259L616 259L616 258L616 255L612 259z"/>
<path style="fill:#000000; stroke:none;" d="M614 258L621 256L614 258z"/>
<path style="fill:#898989; stroke:none;" d="M624.667 255.333L625.333 255.667L624.667 255.333z"/>
<path style="fill:#fdfdfd; stroke:none;" d="M608 283L629 277L630 255C624.464 255.486 611.199 258.757 608.603 264.299C606.343 269.127 608 277.723 608 283z"/>
<path style="fill:#e8e8e8; stroke:none;" d="M630 255L629 277C622.43 277 614.42 275.22 611 282C620.647 276.693 627.037 282.992 637 283L631.573 266.981L630 255z"/>
<path style="fill:#5b5b5b; stroke:none;" d="M637 255L637 267L638 267L637 255z"/>
<path style="fill:#1d1d1d; stroke:none;" d="M638 255L639 278L658 279L658 256L638 255z"/>
<path style="fill:#505050; stroke:none;" d="M655 255L655 256L658 256L658 280L659 280L659 255L655 255z"/>
<path style="fill:#949494; stroke:none;" d="M659 255L659 284L660 284L659 255z"/>
<path style="fill:#464646; stroke:none;" d="M690 255L690 285L691 285L690 255z"/>
<path style="fill:#6f6f6f; stroke:none;" d="M727 255L727 267L728 267L727 255z"/>
<path style="fill:#191919; stroke:none;" d="M728 255C728 261.784 732.281 279.265 727.258 284.397C722.526 289.23 703.539 286 697 286C697 291.271 694.785 303.111 698.179 307.397C701.023 310.988 724.758 310.616 727.682 307.106C732.518 301.303 730 286.093 730 279L749 280L749 256L728 255z"/>
<path style="fill:#7a7a7a; stroke:none;" d="M546 256L546 267L547 267L546 256z"/>
<path style="fill:#1d1d1d; stroke:none;" d="M549 256L549 281L568 280L567 257L549 256z"/>
<path style="fill:#686868; stroke:none;" d="M568 256L568 283L569 283L568 256z"/>
<path style="fill:#d9d9d9; stroke:none;" d="M595 256L595 260L599 256L595 256z"/>
<path style="fill:#626262; stroke:none;" d="M620 256L620 257L623 257L620 256z"/>
<path style="fill:#a5a5a5; stroke:none;" d="M634 256L634 266L636 266L636 256L634 256z"/>
<path style="fill:#878787; stroke:none;" d="M636 256L637 272L638 272L636 256z"/>
<path style="fill:#d5d5d5; stroke:none;" d="M660 256L660 284L665 283L664 279L687 283L687 263L686 263C685.336 266.575 686.028 272.58 683.972 275.566C680.648 280.395 667.177 278 662 278L663 283L660 256z"/>
<path style="fill:#181816; stroke:none;" d="M489 261L510 262L510 257C503.918 258.129 492.806 255.723 489 261z"/>
<path style="fill:#545454; stroke:none;" d="M617.667 257.333L618.333 257.667L617.667 257.333z"/>
<path style="fill:#9e9e9e; stroke:none;" d="M619.667 257.333L620.333 257.667L619.667 257.333z"/>
<path style="fill:#b4b4b4; stroke:none;" d="M724 257L724 267L726 267L726 257L724 257z"/>
<path style="fill:#919191; stroke:none;" d="M726 257L726 267L727 267L726 257z"/>
<path style="fill:#4c2f1d; stroke:none;" d="M343 258L343 259L351 264C351.748 269.137 356.471 271.205 357.683 276.015C361.027 289.278 358.914 309.421 358 323L361 323L360 326L403 323L404 318L399 319L400 315C390.992 316.138 382.079 316.003 373 316C369.321 315.999 364.313 316.661 361.603 313.566C354.871 305.879 359 282.653 359 273C359 269.524 360.478 261.468 357.397 259.028C354.292 256.569 346.768 258 343 258z"/>
<path style="fill:#2d1f14; stroke:none;" d="M405 281L406 281L406 271L419 268L419 307L421 307C420.155 296.299 420 285.758 420 275C420 270.845 421.268 264.122 419.397 260.318C417.644 256.755 407.356 256.755 405.603 260.318C403.076 265.454 405 275.324 405 281z"/>
<path style="fill:#989898; stroke:none;" d="M616.667 258.333L617.333 258.667L616.667 258.333z"/>
<path style="fill:#9e9e9e; stroke:none;" d="M544 259L545 267L546 267L546 259L544 259z"/>
<path style="fill:#535353; stroke:none;" d="M598 259L594 262L594 284L600 285C597.109 277.456 597.741 266.606 600 259L598 259z"/>
<path style="fill:#c0c0c0; stroke:none;" d="M688 259L687 283L669 280C673.805 285.769 682.11 284 689 284L688 259z"/>
<path style="fill:#8f8f8f; stroke:none;" d="M689 259L689 284L690 284L689 259z"/>
<path style="fill:#7c7c7c; stroke:none;" d="M592 265L597 260C593.526 260.576 592.577 261.526 592 265z"/>
<path style="fill:#cacaca; stroke:none;" d="M607 284L611 284L611 283L608 283C608 274.858 605.455 264.973 614 261C603.578 258.66 607 277.836 607 284z"/>
<path style="fill:#a6a1a0; stroke:none;" d="M593 265L593 283L570 284L570 285L594 284L595 265L593 265z"/>
<path style="fill:#623c24; stroke:none;" d="M406 271L404.606 306.996L399 319L404 318L403 323L397 326L429 329L426 324L429 317L423 317L419.13 302.961L419 268L406 271z"/>
<path style="fill:#9d9d9d; stroke:none;" d="M547 267L547 284L548 284L547 267z"/>
<path style="fill:#a6a6a6; stroke:none;" d="M727 267L727 273L728 273L727 267z"/>
<path style="fill:#484848; stroke:none;" d="M460 268L460 269L483 269L460 268z"/>
<path style="fill:#2a2a2a; stroke:none;" d="M483 268L483 269L505 269L483 268z"/>
<path style="fill:#767676; stroke:none;" d="M599 268L598 283L600 283L599 268z"/>
<path style="fill:#656565; stroke:none;" d="M503 269L503 270C510.381 271.177 509 277.997 509 284C511.744 277.46 511.062 269.265 503 269z"/>
<path style="fill:#828281; stroke:none;" d="M728 269L728 284L729 284L728 269z"/>
<path style="fill:#181818; stroke:none;" d="M510 270L508.397 283.397L489 285L436 285L437 308C433.131 304.291 433.045 301.198 427 301L427 278L426 278L425 307L427 304L433 304L433 310L488 310L508.566 308.972L510.999 300L510 270z"/>
<path style="fill:#535353; stroke:none;" d="M548 270L548 284L549 284L548 270z"/>
<path style="fill:#cecece; stroke:none;" d="M592 270L592 280C584.89 279.538 576.736 275.049 572 283L593 283L592 270z"/>
<path style="fill:#5e5d5c; stroke:none;" d="M638 270L638 283L639 283L638 270z"/>
<path style="fill:#b2b2b2; stroke:none;" d="M508 271L508 283L471 283L471 284L509 284L508 271z"/>
<path style="fill:#e8e8e8; stroke:none;" d="M504 274L504 277C488.221 278.923 472.725 279.483 457 279.481C449.138 279.481 443.437 276.091 436 281L436 277L434 277L434 284L465 283L465 280L508 283L508 274L504 274z"/>
<path style="fill:#b3b3b3; stroke:none;" d="M427 277L427 278L434 279L427 277z"/>
<path style="fill:#6a6a6a; stroke:none;" d="M427 278L427 279L433 279L427 278z"/>
<path style="fill:#313131; stroke:none;" d="M427 279L427 301L437 308L436.699 293.001L433 279L427 279z"/>
<path style="fill:#848484; stroke:none;" d="M433 279L433 284L434 284L433 279z"/>
<path style="fill:#bdbdbd; stroke:none;" d="M611 283L637 284C629.555 280.867 617.173 275.589 611 283z"/>
<path style="fill:#191919; stroke:none;" d="M664 279L667 282L667 284C662.716 284.884 660.332 284.385 659 280L658 280L659 309L691 310L691 285L672 286C670.728 281.612 668.22 280.328 664 279z"/>
<path style="fill:#b9b9b9; stroke:none;" d="M371 283L393 284C387.559 281.711 374.984 276.855 371 283z"/>
<path style="fill:#b2b2b2; stroke:none;" d="M437 284L470 283L465 280L465 283C457.493 283 441.218 277.51 437 284z"/>
<path style="fill:#b0b0b0; stroke:none;" d="M519 283L519 284L536 284L536 280L519 283z"/>
<path style="fill:#9c9c9d; stroke:none;" d="M700 283L700 284L720 284C712.378 280.481 707.775 280.24 700 283z"/>
<path style="fill:#bfc1c1; stroke:none;" d="M727 281L720 283L720 284C722.572 283.998 728.458 284.869 727 281z"/>
<path style="fill:#adadad; stroke:none;" d="M756 282L756 283L765 283L756 282z"/>
<path style="fill:#767676; stroke:none;" d="M660 284L660 285L667 282L660 284z"/>
<path style="fill:#8d8d8d; stroke:none;" d="M366 284L366 285L383 284L366 284z"/>
<path style="fill:#7f7f7f; stroke:none;" d="M393 283L393 284L397 284L393 283z"/>
<path style="fill:#707070; stroke:none;" d="M434 286L471 284L443 284L434 286z"/>
<path style="fill:#191919; stroke:none;" d="M568 283L568 310L593 309L595 287L571 286L571 287L573 308C564.955 303.564 571.079 290.338 568 283z"/>
<path style="fill:#8c8c8c; stroke:none;" d="M607 284L607 285L623 284L607 284z"/>
<path style="fill:#626262; stroke:none;" d="M637 283L613 284L613 285L637 283z"/>
<path style="fill:#191919; stroke:none;" d="M638 283L638 307L636 307C636 300.374 637.329 293.414 633 288L637 288L637 286L612 286L612 288L624 289L624 290L610 291L610 292L615 293L612 294L610 309C617.177 309 630.237 311.543 636.682 308.258C641.355 305.875 639.759 287.192 638 283z"/>
<path style="fill:#797876; stroke:none;" d="M753 284L753 285L781 285C774.148 282.125 760.132 281.892 753 284z"/>
<path style="fill:#636363; stroke:none;" d="M371 284L371 285L393 285L371 284z"/>
<path style="fill:#707070; stroke:none;" d="M471 284L471 285L509 285C498.964 280.789 481.911 284 471 284z"/>
<path style="fill:#303030; stroke:none;" d="M547 284L517 285L517 308L521 308L519 287L519 286L547 286L547 306L548 306L547 284z"/>
<path style="fill:#191919; stroke:none;" d="M548 284L548 306L547 306L547 286L519 286L519 287L521 308L517 308L517 285L516 285L516 310C527.301 310 538.475 311.276 549 307L548 284z"/>
<path style="fill:#54585b; stroke:none;" d="M569 284L573 286L573 285L569 284z"/>
<path style="fill:#6f6b67; stroke:none;" d="M574 284L574 285L593 285L574 284z"/>
<path style="fill:#3d3935; stroke:none;" d="M573 285L573 286L595 285L573 285z"/>
<path style="fill:#6c6c6c; stroke:none;" d="M672 284L672 285L690 285L672 284z"/>
<path style="fill:#636363; stroke:none;" d="M697 286L728 285C722.596 282.732 700.912 281.523 697 286z"/>
<path style="fill:#323232; stroke:none;" d="M781 284L750 285L750 286L780 286L780 302L781 302L781 284z"/>
<path style="fill:#595a56; stroke:none;" d="M366 285L366 286L370 286L366 285z"/>
<path style="fill:#333333; stroke:none;" d="M370 285L370 286L392 286L370 285z"/>
<path style="fill:#2b2b2b; stroke:none;" d="M607 285L608 309L610 309L615 293L610 292L610 291L624 290L624 289L612 288L612 286L637 286L637 288L633 288L636 290L636 307L638 307L638 285L607 285z"/>
<path style="fill:#333333; stroke:none;" d="M672 285L672 286L690 286L672 285z"/>
<path style="fill:#353535; stroke:none;" d="M700 285L700 286L728 286L700 285z"/>
<path style="fill:#191919; stroke:none;" d="M749 285L750 309C763.448 309 781.998 314.444 782 297L781 297L781 302L780 302L780 286L749 285z"/>
<path style="fill:#2d2e30; stroke:none;" d="M569 286C569 291.976 566.215 305.748 573 308C571.292 300.827 576.994 288.939 569 286z"/>
<path style="fill:#1d130c; stroke:none;" d="M645 287C645 294.836 647.345 308.62 640.525 314.397C636.348 317.935 626.163 316 621 316L570 316L570 317L625 317C634.647 317 642.83 318.97 646 308L651 309L656 315C651.674 307.176 655.55 285.603 645 287z"/>
<path style="fill:#402911; stroke:none;" d="M651 309L646 308C641.297 319.209 632.591 317 622 317C602.54 317 583.135 315.565 564 315L563 287C557.547 287.181 556.652 288.821 558 294L557 294L557 292L556 292L555 312C538.629 316.779 522.494 316 505 316C478.996 316 452.924 315.003 427 315L427 311L421 307L423 317L429 317L426 324L429 329L424 329L424 330C429.818 329.832 435.182 327.491 441 327.09C465.403 325.407 493.023 324.94 517 329L518 334L530.001 327.475L575 327L599.83 327.46L613 335C618.258 321.647 643.941 327 656 327C699.329 327 742.755 327.881 786 328L786 324L781 323L789 311C780.066 317.872 769.929 316 759 316C755.213 316 749.843 316.926 746.533 314.682C740.568 310.637 743.247 299.111 742.981 293.001C742.882 290.73 742.43 286.401 739.089 286.921C735.635 287.459 736.018 292.502 736.001 295C735.956 301.522 737.517 309.312 731.695 313.852C726.94 317.56 718.68 316 713 316L669 316C661.635 316 654.626 316.544 651 309z"/>
<path style="fill:#92572b; stroke:none;" d="M342 322C339.794 327.927 332.283 335.359 326 337C314.006 359.927 317 385.551 317 411L321 411L325.772 358.015L331 343L332 343L332 346L344 335C344.485 330.665 345.714 328.273 350 327L350 324L342 322z"/>
<path style="fill:#322315; stroke:none;" d="M344 332L345 332C349.722 326.759 358.25 327.033 365 327.001C379.999 326.928 395.001 327 410 327C396.883 321.496 373.296 325.995 359 326C352.923 326.002 346.412 325.42 344 332z"/>
<path style="fill:#000000; stroke:none;" d="M344 335C335.007 335.701 337 348.167 337 355L337 408C337 413.882 335.108 423.829 338.599 428.871C345.897 439.413 355.586 438 367 438L424 438L424 435L429 435C430.697 439.825 435.563 438.998 440 439C450.566 439.004 461.583 439.934 472 438C472.35 433.561 471.118 411.696 476.09 410.921C481.535 410.073 480.68 432.948 481 437L534 439L560 438L559 436C568.655 429.907 555.954 410.071 570 409L571 438C589.797 441.49 610.898 439 630 439C635.028 439 646.262 441.102 650.146 437.397C656.993 430.866 649.77 417.437 655.603 411.603C659.231 407.976 666.518 411.076 670.981 408.682C678.739 404.519 676.392 388.706 677 381L707 381C711.461 381.002 716.594 380.449 719.392 384.684C724.854 392.953 720.999 413.266 721 423C721 427.177 720.039 434.034 723.564 437.142C727.482 440.596 736.176 439 741 439C747.2 439 757.258 440.853 762.49 436.772C766.599 433.566 765.998 426.6 766 422C766.005 408.62 767.447 394.18 765 381C770.01 381 776.21 381.953 780.961 380.11C791.815 375.9 788 358.207 788 349C788 344.082 790.097 332.322 785.486 329.028C782.853 327.146 778.048 328 775 328L749 328L651 328C640.071 328 618.636 323.417 613 335L600.714 327.46L576 327L529.005 327.475L518 334L517 329C487.941 321.312 453.285 328.138 424 330L424 327C404.001 327 383.999 326.904 364 327.001C356.419 327.037 346.105 326.252 344 335z"/>
<path style="fill:#1c100a; stroke:none;" d="M614 332C628.284 324.389 648.9 328 665 328L778 328C767.973 323.792 750.896 327 740 327L652 327C642.723 327 618.708 322.665 614 332z"/>
<path style="fill:#472c1c; stroke:none;" d="M787 329L789 375L790 375C790 360.821 793.018 342.594 789 329L787 329z"/>
<path style="fill:#464a4a; stroke:none;" d="M352 334C372.777 329.053 398.64 333 420 333L403 332L368 332L352 334z"/>
<path style="fill:#46494b; stroke:none;" d="M434 334C457.14 328.491 486.202 333 510 333C504.537 330.708 496.887 332 491 332L452 332C447.099 332 437.407 330.101 434 334z"/>
<path style="fill:#484b4d; stroke:none;" d="M531 340L532 340C533.369 331.23 542.046 333 549 333L600 333C594.784 330.811 587.619 332 582 332L545 332C537.657 332 531.294 330.986 531 340z"/>
<path style="fill:#474a4c; stroke:none;" d="M623 332L623 333L698 333L675 332L623 332z"/>
<path style="fill:#4b4a4a; stroke:none;" d="M705 334C728.14 328.491 757.202 333 781 333C775.537 330.708 767.887 332 762 332L723 332C718.099 332 708.407 330.101 705 334z"/>
<path style="fill:#2b150c; stroke:none;" d="M788 332L788 375L789 375C789 362.781 792.711 343.225 788 332z"/>
<path style="fill:#bdbcbd; stroke:none;" d="M353 333L353 334L419 334C419.075 340.301 420.699 341.925 427 342L427 341C421.572 340.586 420.171 338.256 420 333L353 333z"/>
<path style="fill:#606060; stroke:none;" d="M420 333L420 340L421 340L420 333z"/>
<path style="fill:#bdbdbd; stroke:none;" d="M435 335C457.845 329.561 486.507 334 510 334C504.784 331.811 497.619 333 492 333L453 333C448.099 333 438.407 331.101 435 335z"/>
<path style="fill:#777777; stroke:none;" d="M510 333L510 341L518 341L518 340L511 340L510 333z"/>
<path style="fill:#bdbdbe; stroke:none;" d="M534 333L534 334L600 334L579 333L534 333z"/>
<path style="fill:#828282; stroke:none;" d="M600 333L600 340L601 340L600 333z"/>
<path style="fill:#272727; stroke:none;" d="M601 333L601 340L608 340L608 339L602 339L601 333z"/>
<path style="fill:#bdbdbe; stroke:none;" d="M622 339L623 339C625.198 331.761 634.85 334 641 334L697 334L697 347L698 347L698 333L640 333C633.423 333 622.678 330.299 622 339z"/>
<path style="fill:#767676; stroke:none;" d="M698 333L698 348L699 348L698 333z"/>
<path style="fill:#bcbcbd; stroke:none;" d="M706 333L706 334L780 334L780 347L781 347L781 333L706 333z"/>
<path style="fill:#6d6d6d; stroke:none;" d="M781 333L781 347L782 347L781 333z"/>
<path style="fill:#5a5a5a; stroke:none;" d="M350 334L350 340L345 340L345 341L351 341L350 334z"/>
<path style="fill:#929292; stroke:none;" d="M351 334L351 341L352 341L353 334L351 334z"/>
<path style="fill:#fefefe; stroke:none;" d="M345 380L357.989 374.903L367 378L370 373C368.022 366.772 363.436 354.389 367.179 348.264C370.772 342.384 389.725 341.501 394.231 346.434C398.113 350.682 397 357.73 397 363C400.049 361.139 402.226 358.588 406.001 358.137C409.99 357.661 414.956 360.092 418.701 358.393C423.069 356.41 426.594 346.442 427 342C421.16 341.81 419.19 339.84 419 334L371 334C360.473 334 350.708 333.62 345.603 344.313C341.532 352.841 345 370.538 345 380z"/>
<path style="fill:#383838; stroke:none;" d="M433 334L433 407L434 407L434 357L433 334z"/>
<path style="fill:#9e9e9e; stroke:none;" d="M434 334L434 363C434.007 366.412 434.729 374.786 439 369L436 371L434 334z"/>
<path style="fill:#fdfdfd; stroke:none;" d="M436 334L436 368L444 361L436.314 378.129L436 405C442.973 399.61 447.133 398 456 398C456 391.575 453.409 377.917 457.318 372.576C461.152 367.337 482.159 370.916 488 372L488 406L497.914 399.832L509.397 399.821L511.317 388.004L516 379C511.625 378.662 509.903 377.331 509 373C494.819 365.164 511.964 358.553 514 351L515 351L515 355L516 355L516 342L510 342L510 334L436 334M533 334C532.829 339.256 531.428 341.586 526 342L526 405L535.04 399.434L552 401L549 383L544 383C552.849 373.482 562.464 373.104 575 373L574 376L577 380L582 380C583.579 367.845 588.065 362.348 585 350C595.914 358.133 587.478 371.021 586 382C592.122 386.26 595.893 389.203 595 397L599 397C599.76 378.085 597.661 359.336 606 342C601.108 341.627 599.373 339.892 599 335L533 334z"/>
<path style="fill:#eeeeee; stroke:none;" d="M540 334L540 335L599 335C599.174 340.31 600.69 341.826 606 342C596.014 356.692 599.38 378.954 599 396L604 394L607 341C602.108 340.627 600.373 338.892 600 334L540 334z"/>
<path style="fill:#232323; stroke:none;" d="M621 334L621 339L616 339L616 340L622 340L621 334z"/>
<path style="fill:#ffffff; stroke:none;" d="M616 342L616 391L627 389L636 369L640 369L642 359L639 359L641 346L697 347L697 334L627.059 334.148L616 342z"/>
<path style="fill:#666666; stroke:none;" d="M704 334L704 349L724.397 350.742L726 372L727 372C727 367.14 729.468 352.253 725.397 349.028C721.402 345.864 709.941 348 705 348L704 334z"/>
<path style="fill:#c6c6c6; stroke:none;" d="M705 334L705 348L711 348L711 347L706 347L705 334z"/>
<path style="fill:#ededed; stroke:none;" d="M706 334L706 335L779 335L776 338L776 343C768.868 342.099 751.78 337.989 751 348L752 348C757.753 342.126 772.14 347 780 347L780 334L706 334z"/>
<path style="fill:#1d1916; stroke:none;" d="M782 334C782 337.739 783 343.417 780.821 346.682C777.666 351.41 764.057 349 759 349L759 389C759 393.627 760.505 401.659 757.821 405.682C754.972 409.951 730.882 409.959 728.028 405.682C723.487 398.877 727 380.122 727 372L726 372C726 385.735 726.362 399.323 726.961 413C727.17 417.78 725.454 425.314 727.603 429.682C729.822 434.19 755.905 433.736 758.682 429.682C761.569 425.469 760.07 416.872 759.95 412C759.621 398.691 760 385.319 760 372C764.754 373.132 776.247 375.108 780.397 371.821C782.911 369.829 781.995 364.795 782 362C782.014 353.424 785.393 342.086 782 334z"/>
<path style="fill:#e2e2e2; stroke:none;" d="M435 335L436 371L440 366L439 366L436 368L435 335z"/>
<path style="fill:#e1e1e1; stroke:none;" d="M532 335C531.291 339.444 529.394 340.665 525 341L525 391C525 396.251 522.976 405.001 529 407L526 405L526 342C530.736 341.844 534.096 340.176 532 335z"/>
<path style="fill:#fefefe; stroke:none;" d="M706 335L706 347L712 343L714 345L715 345C721.406 340.153 727.991 346.06 728.867 353C731.028 370.107 729 388.748 729 406C736.662 400.291 741.327 398 751 398C751 392.655 749.942 386.974 754 383L754 382L744 383C747.199 379.914 755.551 377.183 756.663 372.78C757.889 367.926 752.4 366.065 751.318 361.957C750.739 359.758 751.001 357.251 751 355C750.992 338.062 762.458 341.931 776 343L779 335L706 335z"/>
<path style="fill:#593215; stroke:none;" d="M337 338L335 359L331 359L331 415C330.988 422.264 327.793 431.208 335 436L334 439L353 449L352 451L450 452.985L500 449L500 448C490.593 447.993 482.508 443.843 473.004 444.005C465.047 444.14 457.225 447.6 449 447.961C420.749 449.198 387.996 451.647 360.001 447.811C354.445 447.05 349.78 443.735 344 443L343 433C333.188 428.369 336 416.158 336 407C336 390.682 335.615 374.312 336.015 358C336.165 351.855 339.252 343.771 337 338z"/>
<path style="fill:#e1e1e1; stroke:none;" d="M622 339L616 341L616 342C618.575 341.958 622.542 342.285 622 339z"/>
<path style="fill:#5c5c5c; stroke:none;" d="M421 340L421 341L427 341L421 340z"/>
<path style="fill:#929292; stroke:none;" d="M524 340L524 389C524 393.901 522.101 403.593 526 407C521.194 386.813 525 361.75 525 341L531 341L524 340z"/>
<path style="fill:#818181; stroke:none;" d="M601 340L601 341L608 342L601 340z"/>
<path style="fill:#6c6c6c; stroke:none;" d="M615 396L616 396L623 394L623 393C609.819 390.899 615 365.365 615 355C615 348.986 613.617 342.177 621 341C612.795 337.678 614 347.796 614 353C614 367.3 613.207 381.81 615 396z"/>
<path style="fill:#68696b; stroke:none;" d="M343 341L343 400L344 400C344 381.384 340.686 359.118 345 341L343 341z"/>
<path style="fill:#d4d4d4; stroke:none;" d="M344 400L351 400L351 399L345 399C345 390.308 344.333 385.862 351 380L345 380C345 371.408 340.475 343.679 351 342C342.795 338.678 344 348.796 344 354L344 400z"/>
<path style="fill:#999999; stroke:none;" d="M427 341L426 363L427 363L427 341z"/>
<path style="fill:#1e1e1e; stroke:none;" d="M428 341C428 346.474 430.345 359.221 426.258 363.397C421.629 368.125 403.379 365 397 365L399 367L397 372L399 375L396 374L395 391L396 391C396 387.474 394.867 381.339 397.603 378.603C400.976 375.231 423.024 375.231 426.397 378.603C429.946 382.153 427.899 395.075 428 400L429 400L430 373L428 341z"/>
<path style="fill:#c6c6c6; stroke:none;" d="M510 341L510 342L516 342L516 355L515 355L515 351L514 351C511.715 356.639 493.59 367.875 509 373L509 377L510 377C510 369.981 507.1 360.478 517 362L518 341L510 341z"/>
<path style="fill:#444444; stroke:none;" d="M518 341L518 360L519 360L518 341z"/>
<path style="fill:#323232; stroke:none;" d="M523 341L523 407L524 407L524 362L523 341z"/>
<path style="fill:#585858; stroke:none;" d="M608 341L608 354L609 354L608 341z"/>
<path style="fill:#6d401e; stroke:none;" d="M335 342L333 354L330 353C326.907 377.295 325.908 404.332 327.039 429C327.334 435.43 330.941 440.46 331 447L338 454C343.004 454.004 347.341 453.535 349 459L444 461.019L557 463L557 457L584 458L584 463C600.798 463 626.251 467.777 641.674 460.54C644.3 459.308 645.058 456.479 647.415 455.013C650.855 452.874 654.137 453.925 657.242 450.651C662.348 445.265 661.741 437.253 665.648 431.304C670.265 424.275 677.24 419.865 679 411C675.458 412.176 674.491 414.407 674 418C665.645 420.197 662.123 430.488 658.607 437.487C654.301 446.059 647.453 451.795 637.911 453.726C624.077 456.526 601.994 456.049 588.043 453.853C580.767 452.707 575.237 448.78 567 449.043C557.266 449.354 547.581 452.628 537.996 452.981C528.42 453.334 517.502 454.19 508.015 452.856C502.647 452.102 498.757 449.073 493 449.004C477.945 448.824 463.736 452.623 449 452.985C416.611 453.781 383.999 451.11 352 451L353 449L334 439L335 436C328.456 429.505 331 421.4 331 413L331 359L335 359L335 342z"/>
<path style="fill:#a0a0a0; stroke:none;" d="M607 342L606 394L601 395L601 396L607 395L607.089 363L607 342z"/>
<path style="fill:#202020; stroke:none;" d="M613 342L613 392L614 392C614 377.951 618.409 354.889 613 342z"/>
<path style="fill:#d1d1d1; stroke:none;" d="M615 342L615 391L616 391C616 377.212 620.309 354.652 615 342z"/>
<path style="fill:#eaeaeb; stroke:none;" d="M712 343L709 347L725.682 349.514L728 365L728 407L739.999 402.167L757 405L757 379L750 381L750 382L754 382L754 383C749.436 385.959 751 393.087 751 398C741.632 398 735.781 399.071 729 406L729 362C729 356.441 730.19 348.807 725.387 344.742C721.468 341.426 716.329 344.384 712 343z"/>
<path style="fill:#ececec; stroke:none;" d="M370 373L364 378L364 379L374 380C374 372.761 366.861 354.899 371.742 349.564C376.222 344.667 389.005 347 395 347C391.346 341.828 370.946 341.873 367.179 347.475C363.233 353.343 367.51 367.138 370 373z"/>
<path style="fill:#d8d8d8; stroke:none;" d="M744 383L757 379L757 405L741 402C744.073 407.861 752.293 406 758 406L758 362C746.905 356.404 756.305 347.204 765 347L765 345C753.621 345 746.208 350.952 751.603 363.791C752.847 366.751 756.94 368.235 756.534 371.907C755.997 376.765 746.723 379.032 744 383z"/>
<path style="fill:#d1d1d1; stroke:none;" d="M463 359L463 358C453.72 345.732 476.842 347 483 347C478.695 345.194 465.585 344.215 461.573 347.028C457.236 350.068 458.377 357.466 463 359z"/>
<path style="fill:#d3d3d3; stroke:none;" d="M554 361L551 358L551 348L572 347C567.631 345.167 554.66 344.247 550.558 347.028C544.287 351.279 547.031 360.459 554 361z"/>
<path style="fill:#b8b8b8; stroke:none;" d="M641 346L639 359L644 361L645 347L641 346z"/>
<path style="fill:#5a351c; stroke:none;" d="M790 346L790 375C785.671 376.46 782.733 380.545 782 385C766.62 387.375 768.004 409.468 768 421C767.998 427.242 767.984 434.816 761 437L761 442L761 443L730 444L730 440C716.376 436.788 717.778 410.445 719 399L717 394C706.394 388.699 692.237 385.16 682.134 394.444C677.755 398.468 676.01 404.873 670.981 408.106C666.721 410.845 658.021 407.824 655.028 411.603C647.882 420.626 659.252 441.549 640 443L642 445L642 446L637 446L637 450C621.102 450 604.864 450.969 589 449.977C584.316 449.684 580.917 447.011 576 447C570.582 446.987 559.031 442.058 557 449L503 450C507.3 456.633 530.441 453.123 537.996 452.995C548.513 452.817 559.325 448.285 570 449.174C576.503 449.715 581.27 452.896 587.104 453.853C604.179 456.651 634.505 457.606 649.942 449.57C661.673 443.464 660.912 423.5 674 418L676 411L681 411L681 407C686.374 405.223 688.06 398.993 694.004 397.533C710.356 393.518 712 413.994 712 425C712 429.7 710.759 435.26 716 437L716 445L735.17 453.698L757 453L762 444L761 447L767 450L770 437L774 437L775.86 406.039L787.999 387.961L795 374L793 352L792 352L792 359L791 359L790 346z"/>
<path style="fill:#9c9c9c; stroke:none;" d="M375 347L375 348L391 348L375 347z"/>
<path style="fill:#c5c5c5; stroke:none;" d="M391 347L391 348L395 348L391 347z"/>
<path style="fill:#b3b3b3; stroke:none;" d="M464 359C464.294 345.279 475.391 348 486 348C481.021 345.911 469.165 345.624 464.148 347.894C459.403 350.04 460.524 356.493 464 359z"/>
<path style="fill:#a4a4a4; stroke:none;" d="M551 348L551 358L554 358C554.153 345.063 566.268 348 576 348L551 348z"/>
<path style="fill:#a5a5a5; stroke:none;" d="M642 366L643 366C648.595 360.718 659.712 363 667 363L667 362C661.815 362 651.754 363.932 647.318 360.972C643.698 358.556 644.103 350.37 648.148 348.603C652.211 346.829 658.642 348 663 348L698 348C687.496 343.592 669.42 347 658 347C654.294 347 647.816 345.765 644.899 348.564C641.434 351.889 642.307 361.377 642 366z"/>
<path style="fill:#a8a8a8; stroke:none;" d="M711 347L711 348L723 348L711 347z"/>
<path style="fill:#aaaaaa; stroke:none;" d="M757 362C757.011 345.331 767.398 348 781 348C775.562 345.718 761.357 345.372 756.148 348.457C750.96 351.529 752.419 359.474 757 362z"/>
<path style="fill:#c0c0c0; stroke:none;" d="M371 348C369.551 354.085 369.243 361.395 374 366L373 348L371 348z"/>
<path style="fill:#a1a1a1; stroke:none;" d="M373 348L372 359L373 359L375 348L373 348z"/>
<path style="fill:#373737; stroke:none;" d="M374 361L375 361C375.002 346.082 383.149 349.992 395 350C394.98 357.186 391.546 370.89 399 375L397 372L397 365L427 365L427 364C420.892 364 400.7 367.185 397.028 361.682C394.915 358.515 396 352.641 396 349C382.343 347.922 374 344.807 374 361z"/>
<path style="fill:#828282; stroke:none;" d="M391 348L391 349L396 349L391 348z"/>
<path style="fill:#6e6e6e; stroke:none;" d="M466 348L466 349L486 349L486 362L465 362L465 363L487 363L487 348L466 348z"/>
<path style="fill:#777777; stroke:none;" d="M556 348L556 349L576 349L576 362L577 362L577 348L556 348z"/>
<path style="fill:#5f5f5f; stroke:none;" d="M645 361L646 361L647.603 350.603L661 349L698 349C687.734 344.692 670.158 348 659 348C655.672 348 649.385 346.825 646.603 349.028C643.782 351.262 645 357.82 645 361z"/>
<path style="fill:#1d1d1d; stroke:none;" d="M698 348L698 371L697 371L696 350L646 350L646 361C651.584 361 660.592 359.279 665.656 361.858C670.011 364.076 670.606 374.192 666.566 376.972C662.076 380.063 651.307 378 646 378L646 408C632.552 408 614.002 413.444 614 396L613 396L615 433L646 432L647 400L649 403L669 402L670 373C677.148 373 690.247 375.563 696.682 372.397C701.304 370.122 699.709 352.074 698 348z"/>
<path style="fill:#656460; stroke:none;" d="M759 348L759 349L781 349L759 348z"/>
<path style="fill:#171717; stroke:none;" d="M376 374L396 374L395 350C390.293 349.987 380.514 346.931 376.603 350.028C372.357 353.39 376 368.935 376 374z"/>
<path style="fill:#878787; stroke:none;" d="M396 349L396 363L397 363L396 349z"/>
<path style="fill:#dadada; stroke:none;" d="M424 349C422.501 351.971 421.264 357.072 417.857 358.357C411.413 360.788 403.707 354.541 399 362L425 361L426 349L424 349z"/>
<path style="fill:#1b1b1b; stroke:none;" d="M465 349L465 362L486 362L486 349L465 349z"/>
<path style="fill:#333333; stroke:none;" d="M555 349L555 361L556 361L556 350L576 350L555 349z"/>
<path style="fill:#d5d5d5; stroke:none;" d="M577 349L577 363L555 363L555 364C566.328 364 584.336 366.482 577 349z"/>
<path style="fill:#343434; stroke:none;" d="M647 349L647 350L696 350L697 371L698 371L698 349L647 349z"/>
<path style="fill:#1f1f1f; stroke:none;" d="M705 349L705 373C709.75 373 720.546 375.022 724.397 371.972C727.624 369.416 727.483 351.68 723.682 349.742C718.943 347.326 710.233 349 705 349z"/>
<path style="fill:#4f4f4f; stroke:none;" d="M758 349L758 362L759 362L758 349z"/>
<path style="fill:#8e8e8e; stroke:none;" d="M554 350C554 353.145 552.953 358.777 555.028 361.397C558.173 365.368 572.282 363 577 363L577 362C572.081 362 559.115 364.308 556.028 359.682C554.21 356.959 555.257 352.995 554 350z"/>
<path style="fill:#1c1c1c; stroke:none;" d="M556 350L556 362L576 362L576 350L556 350z"/>
<path style="fill:#c7c7c7; stroke:none;" d="M585 350L588 356L590 355L585 350z"/>
<path style="fill:#8b9094; stroke:none;" d="M727 350L727 407L728 407L728 368L727 350z"/>
<path style="fill:#291a0f; stroke:none;" d="M336 352L336 413C336 420.599 333.914 430.419 343 433L346 437C343.68 432.648 338.529 429.807 337.318 424.999C333.293 409.022 337 387.506 337 371C337 365.113 338.292 357.462 336 352z"/>
<path style="fill:#c7c7c7; stroke:none;" d="M424 352L425 361C416.279 361 406.634 357.361 399 362L399 363L426 363L426 352L424 352z"/>
<path style="fill:#626262; stroke:none;" d="M427 352L427 363L428 363L427 352z"/>
<path style="fill:#6c6c6c; stroke:none;" d="M464 352L464 362L465 362L464 352z"/>
<path style="fill:#7a7a7a; stroke:none;" d="M757 352L757 362L758 362L757 352z"/>
<path style="fill:#808080; stroke:none;" d="M373 353L374 366L375 366L373 353z"/>
<path style="fill:#9a9a9a; stroke:none;" d="M588 354L585 369L588 370C589.644 364.813 591.546 358.681 588 354z"/>
<path style="fill:#313131; stroke:none;" d="M608 354L608 395L603 398C607.596 399.69 607.945 402.395 608 407L609 407L609 371L608 354z"/>
<path style="fill:#cbcbcb; stroke:none;" d="M590 355L589 367L590 367L590 355z"/>
<path style="fill:#c0c0c0; stroke:none;" d="M604 356C602.566 363.726 599.111 389.132 606 394L606 356L604 356z"/>
<path style="fill:#626262; stroke:none;" d="M517 359L511 362L511 363L518 363L517 359z"/>
<path style="fill:#707070; stroke:none;" d="M607 359L607 395L608 395C608 384.613 611.011 368.56 607 359z"/>
<path style="fill:#2e2e2e; stroke:none;" d="M518 360L515 363L516 376L511 376L511 377C522.169 377.852 518 397.688 518 406L519 406C519 392.997 523.01 371.939 518 360z"/>
<path style="fill:#4d4d4d; stroke:none;" d="M375 361L375 392L397 392L397 378L396 378L396 391L376 391L375 361z"/>
<path style="fill:#9a9a9a; stroke:none;" d="M401 362L401 363L413 363L401 362z"/>
<path style="fill:#a4a4a4; stroke:none;" d="M440 365C442.288 364.058 442.658 363.437 443 366L444 366L444 361L440 365z"/>
<path style="fill:#949494; stroke:none;" d="M509 366L510 366L515 362C511.264 360.581 509.615 362.314 509 366z"/>
<path style="fill:#3a3a3a; stroke:none;" d="M646 361L646 362L667 362L646 361z"/>
<path style="fill:#8b9195; stroke:none;" d="M758 362L758 406L759 406C759 393.52 762.81 373.463 758 362z"/>
<path style="fill:#676767; stroke:none;" d="M397 363L397 364L427 364L397 363z"/>
<path style="fill:#787878; stroke:none;" d="M442 363L438 372L434 371L435 377L436 377C438.507 372.305 443.792 369.061 442 363z"/>
<path style="fill:#d1d1d1; stroke:none;" d="M465 363L465 364L487 364L465 363z"/>
<path style="fill:#666666; stroke:none;" d="M510 363L510 378C521.065 378.844 517 397.783 517 406L518 406C518 397.533 522.349 377.373 511 377L510 363z"/>
<path style="fill:#181818; stroke:none;" d="M511 363L511 376L516 376C515.657 370.668 517.747 364.126 511 363z"/>
<path style="fill:#cecece; stroke:none;" d="M587 363L586 366L587 363z"/>
<path style="fill:#c2c2c2; stroke:none;" d="M641 363L640 369L636 372L640 373L641 373L641 363z"/>
<path style="fill:#efefef; stroke:none;" d="M644 365L666 364C658.857 372.334 654.295 372.616 645 368L643 373L643 367L642 367C640.323 373.425 634.915 376.304 632.194 382C630.975 384.551 632.191 388.115 630.307 390.272C623.591 397.962 616.01 392.706 616 406L631 402L631 405L645 406L644 395L643 395L642 397C641.067 394.709 639.916 392.429 639.389 389.998C635.521 372.154 656.175 376 668 376L667 363C661.285 363 647.898 360.54 644 365z"/>
<path style="fill:#adacaa; stroke:none;" d="M667 363L667 367L668 367L667 363z"/>
<path style="fill:#717679; stroke:none;" d="M668 363L668 376L669 376L668 363z"/>
<path style="fill:#ffffff; stroke:none;" d="M643 373L646 372L645 368C652.605 373.213 661.314 373.6 666 364C656.268 364 643.045 360.249 643 373z"/>
<path style="fill:#c5c5c5; stroke:none;" d="M374 366L374 380L361 380L361 381L374 383L374 391L375 391L374 366z"/>
<path style="fill:#ababab; stroke:none;" d="M442.333 366.667L442.667 367.333L442.333 366.667z"/>
<path style="fill:#505050; stroke:none;" d="M586 368L585 374L587 374L586 368z"/>
<path style="fill:#e9e9e9; stroke:none;" d="M456 398C449.842 398 442.574 397 439 403L465 406C464.994 397.641 458.998 389.91 460.152 382.005C461.64 371.808 481.833 374.86 488 378L488 372C482.498 370.69 461.201 367.252 457.318 371.894C453.237 376.773 456 391.837 456 398z"/>
<path style="fill:#d0d0d0; stroke:none;" d="M587 370L586 379L587 379L587 370z"/>
<path style="fill:#cdcdcd; stroke:none;" d="M583 371L583 375L584 375L583 371z"/>
<path style="fill:#858585; stroke:none;" d="M584 371L583 380L584 380L584 376L585 376L585 379L586 379L584 371z"/>
<path style="fill:#747474; stroke:none;" d="M633 375L636 378L640 371L633 375z"/>
<path style="fill:#9e9e9e; stroke:none;" d="M439 372L436 376L441 372L439 372z"/>
<path style="fill:#000000; stroke:none;" d="M376 391L395 391L396 374L377.028 374.643L376 391z"/>
<path style="fill:#cbcbcb; stroke:none;" d="M549 379C558.926 375.786 565.426 375.664 576 377L576 376L575 373C567.502 373.021 552.727 371.61 549 379z"/>
<path style="fill:#c3c3c3; stroke:none;" d="M356 374L356 375L360 375L356 374z"/>
<path style="fill:#b8b8b8; stroke:none;" d="M477 374L477 376L486 377L477 374z"/>
<path style="fill:#5a5a5a; stroke:none;" d="M353 378L362 378C358.856 374.804 356.144 374.804 353 378z"/>
<path style="fill:#c8c8c8; stroke:none;" d="M360 375L363 377L360 375z"/>
<path style="fill:#707070; stroke:none;" d="M548 381L554 380L554 390L555 390L555 377L562 376C557.216 374.015 550.841 376.883 548 381z"/>
<path style="fill:#787878; stroke:none;" d="M352 376L350 380L354 379L354 376L352 376z"/>
<path style="fill:#b7b7b7; stroke:none;" d="M464 397L465 397L465 376C455.18 378.981 461.974 390.751 464 397z"/>
<path style="fill:#919191; stroke:none;" d="M464 382L465 382C467.141 374.948 475.98 377 482 377C476.026 374.493 464.619 374.055 464 382z"/>
<path style="fill:#969696; stroke:none;" d="M562 376L562 377L573 377L562 376z"/>
<path style="fill:#cdcdcd; stroke:none;" d="M582 376L582 380L578 380L578 381L583 381L582 376z"/>
<path style="fill:#4b4b4b; stroke:none;" d="M584 376C582.971 381.245 581.906 385.189 588 387L588 386L585 385L587 383L584 376z"/>
<path style="fill:#b7b7b7; stroke:none;" d="M631 376L631 379L632 379L633 376L631 376z"/>
<path style="fill:#3c3c3c; stroke:none;" d="M633 376L628 390L619 391L619 393L630 391L635 376L633 376z"/>
<path style="fill:#afafaf; stroke:none;" d="M646 376L646 377L668 377L646 376z"/>
<path style="fill:#2c2014; stroke:none;" d="M785 376C779.919 382.249 772.355 381 765 381C767.311 399.283 766.662 418.896 764 437L765 437C770.936 422.43 761.752 390.687 782 385L787 376L785 376z"/>
<path style="fill:#fefefe; stroke:none;" d="M345 399C349.469 399.306 351.835 400.544 353 405L354 405C358.976 395.977 378.038 404.161 386.791 401.683C392.974 399.932 398.05 395.455 405 394.191C411.21 393.063 422.416 392.318 423 385L426 385L426 379L398 379C398 382.485 399.137 388.575 396.397 391.258C388.749 398.744 374.088 392.767 374 383C368.132 382.254 362.929 378.443 357.675 377.734C344.642 375.974 345 390.891 345 399z"/>
<path style="fill:#878787; stroke:none;" d="M359 378L359 379L365 380L359 378z"/>
<path style="fill:#4f4f4f; stroke:none;" d="M397 377L397 378L410 378L397 377z"/>
<path style="fill:#6d6d6d; stroke:none;" d="M410 377L410 378L427 378L410 377z"/>
<path style="fill:#919191; stroke:none;" d="M434 377L434 408L465 407L465 406L435 407L434 377z"/>
<path style="fill:#e2e2e2; stroke:none;" d="M435 377C435 383.768 431.826 402.478 437 407L435 377z"/>
<path style="fill:#707070; stroke:none;" d="M466 377L466 378L486 378L486 403L487 403L487 377L466 377z"/>
<path style="fill:#353535; stroke:none;" d="M555 377L555 391L556 391L555 377z"/>
<path style="fill:#636363; stroke:none;" d="M562 377L562 378L573 378L562 377z"/>
<path style="fill:#8a8a8a; stroke:none;" d="M573 377L573 378L577 379L573 377z"/>
<path style="fill:#a9a9a9; stroke:none;" d="M641 377L645 406L631 405L631 402L619 405L619 406L646 407L645 377L641 377z"/>
<path style="fill:#5a5a5a; stroke:none;" d="M645 377L645 390L646 390L646 378L668 378L645 377z"/>
<path style="fill:#c4c4c4; stroke:none;" d="M397 378L397 392L398 392L398 379C404.762 379 422.052 375.909 426 382L427 382L427 378L397 378z"/>
<path style="fill:#4b4b4b; stroke:none;" d="M427 378L427 390L428 390L427 378z"/>
<path style="fill:#1a1a1a; stroke:none;" d="M465 378C465 385.087 468.841 399.658 464.821 405.682C461.108 411.247 438.83 408.388 433 407L433 433C439.492 432.866 459.392 434.879 464.258 430.972C469.469 426.79 467.504 408.284 468 402L486 403L486 378L465 378z"/>
<path style="fill:#c9c9c9; stroke:none;" d="M487 378L487 407L516 406L516 405C505.012 404.992 498.461 400.292 488 406L487 378z"/>
<path style="fill:#d1d1d1; stroke:none;" d="M510 378L510 379L516 379L510 378z"/>
<path style="fill:#1c1c1c; stroke:none;" d="M563 378L563 403C566.145 403 571.777 404.047 574.397 401.972C577.007 399.904 577.859 381.068 575.382 379.028C572.679 376.801 566.297 378 563 378z"/>
<path style="fill:#cbcbcb; stroke:none;" d="M639 378C638.777 380.528 640.06 399.33 643 395L644 395L644 400L645 400L641 378L639 378z"/>
<path style="fill:#e0e0e0; stroke:none;" d="M516 379C514.585 381.721 512.076 383.978 511.317 387.015C510.395 390.702 512.411 396.314 509.397 399.258C503.957 404.568 496.687 395.292 492 404L516 405L516 404C509.949 396.013 518.83 386.915 516 379z"/>
<path style="fill:#bdbdbd; stroke:none;" d="M585 379L585 382L586 382L585 379z"/>
<path style="fill:#a3a3a3; stroke:none;" d="M546 380L551 382L552 390L554 390L554 380L546 380z"/>
<path style="fill:#8e8e8e; stroke:none;" d="M577 380L583 385L577 380z"/>
<path style="fill:#dedede; stroke:none;" d="M544 381L549 383L552 401C545.665 400.815 535.568 395.535 531 402L555 406L551 382L544 381z"/>
<path style="fill:#7f7f7f; stroke:none;" d="M644 381L644 389L645 389L644 381z"/>
<path style="fill:#332515; stroke:none;" d="M677 381L676 401C679.509 398.7 681.725 394.891 685.286 392.55C696.503 385.176 706.204 390.669 717 394L719 399C717.086 408.808 718.667 426.202 721 436C724.422 424.874 721.001 406.915 721 395C721 390.75 721.8 384.762 717.525 382.14C708.904 376.85 687.069 381 677 381z"/>
<path style="fill:#686868; stroke:none;" d="M426 382L426 389L419 392L419 393C424.256 393.171 426.586 394.572 427 400L428 400L426 382z"/>
<path style="fill:#909090; stroke:none;" d="M463 382L463 391L464 391L463 382z"/>
<path style="fill:#696969; stroke:none;" d="M464 382L464 391L465 391L464 382z"/>
<path style="fill:#bfbfbf; stroke:none;" d="M586 382L590 385L586 382z"/>
<path style="fill:#c3c3c3; stroke:none;" d="M627 382L627 389L628 389L629 382L627 382z"/>
<path style="fill:#9a9a9a; stroke:none;" d="M516 383L516 406L491 406L491 407L517 407L516 383z"/>
<path style="fill:#707070; stroke:none;" d="M576 383L576 401L577 401L576 383z"/>
<path style="fill:#d7d7d7; stroke:none;" d="M577 383C577 388.868 574.435 403.011 579 407C577.63 401.244 575.459 387.592 581 384L577 383z"/>
<path style="fill:#ffffff; stroke:none;" d="M578 384L578 406C593.259 401.842 595.654 386.792 578 384z"/>
<path style="fill:#191919; stroke:none;" d="M585 384L585 385L593 389L585 384z"/>
<path style="fill:#9d9d9d; stroke:none;" d="M630 384L630 387L631 387L630 384z"/>
<path style="fill:#c9c9c9; stroke:none;" d="M423 385L423 389L426 389L426 385L423 385z"/>
<path style="fill:#979797; stroke:none;" d="M591.667 386.333L592.333 386.667L591.667 386.333z"/>
<path style="fill:#c4c4c4; stroke:none;" d="M515 387L514 404L516 404L515 387z"/>
<path style="fill:#999999; stroke:none;" d="M586.667 387.333L587.333 387.667L586.667 387.333z"/>
<path style="fill:#767676; stroke:none;" d="M593 387L595 390L593 387z"/>
<path style="fill:#656565; stroke:none;" d="M630 387L630 391L631 391L630 387z"/>
<path style="fill:#bababa; stroke:none;" d="M631 387L631 391L632 391L631 387z"/>
<path style="fill:#777777; stroke:none;" d="M588.667 388.333L589.333 388.667L588.667 388.333z"/>
<path style="fill:#515151; stroke:none;" d="M590 389L590 390L594 394C595.124 390.572 593.22 389.535 590 389z"/>
<path style="fill:#a3a3a3; stroke:none;" d="M595 389L595 394L596 394L595 389z"/>
<path style="fill:#a5a5a5; stroke:none;" d="M616 391L616 392L628 390L616 391z"/>
<path style="fill:#9c9c9c; stroke:none;" d="M554 390L554 397L555 397L554 390z"/>
<path style="fill:#8d8d8d; stroke:none;" d="M410 393L410 394L423 394L423 393L419 393L419 392L421 392L410 393z"/>
<path style="fill:#787878; stroke:none;" d="M555 391L555 407L556 407L555 391z"/>
<path style="fill:#cdcdcd; stroke:none;" d="M592 391L592 395L593 395L592 391z"/>
<path style="fill:#747474; stroke:none;" d="M627 391L627 392L630 392L627 391z"/>
<path style="fill:#aeaeae; stroke:none;" d="M375 392L375 393L396 393L375 392z"/>
<path style="fill:#767676; stroke:none;" d="M465 392L465 406L466 406L465 392z"/>
<path style="fill:#8a8a8a; stroke:none;" d="M593 392L592 397L606 400L606 406L599 403L598 403L598 407L608 407C607.968 397.948 603.501 395.952 595 397L593 392z"/>
<path style="fill:#c6c6c6; stroke:none;" d="M411 397L411 398L414 398C410.857 403.124 405.411 402 400 402L400 400L407 400L407 399L398 399C399.726 407.278 412.892 406.98 420 407L420 399L426 399L426 393L411 397z"/>
<path style="fill:#dfdfdf; stroke:none;" d="M400 395L400 396L410 395L400 395z"/>
<path style="fill:#575757; stroke:none;" d="M392 398L392 399L396 402L397 402C400.525 397.824 404.597 396.251 410 396L410 397L407 397L407 398L415 394L392 398z"/>
<path style="fill:#919191; stroke:none;" d="M426 394L426 399L420 399L420 401L427 401L426 394z"/>
<path style="fill:#cccccc; stroke:none;" d="M615 407L619 407L619 406L616 406C616.021 400.207 616.558 396.006 623 395C614.259 391.361 615 401.174 615 407z"/>
<path style="fill:#bbbbbb; stroke:none;" d="M591.333 395.667L591.667 396.333L591.333 395.667z"/>
<path style="fill:#b7b7b7; stroke:none;" d="M397 396L397 397L400 397L397 396z"/>
<path style="fill:#2f2f2f; stroke:none;" d="M401 397L401 398L410 397L401 397z"/>
<path style="fill:#6f6f6f; stroke:none;" d="M614 396L614 407L615 407L614 396z"/>
<path style="fill:#9b9b9b; stroke:none;" d="M389 404L352 406C351.578 400.589 349.017 400.059 344 400L344 401C348.394 401.335 350.291 402.556 351 407L393 407L394 398C390.1 397.152 389.368 400.729 389 404z"/>
<path style="fill:#b4b4b4; stroke:none;" d="M394 397L394 398L397 398L394 397z"/>
<path style="fill:#a4a4a4; stroke:none;" d="M590 397L590 404L582 406L582 407L593 406L590 397z"/>
<path style="fill:#555555; stroke:none;" d="M591 397C591.158 402.331 592.293 405.549 598 406L599 398L591 397z"/>
<path style="fill:#767676; stroke:none;" d="M401 398L401 399L410 399L401 398z"/>
<path style="fill:#dfdfdf; stroke:none;" d="M400 400L400 402C405.148 402 411.751 403.594 414 398L400 400z"/>
<path style="fill:#313131; stroke:none;" d="M592 398L596 403L592 398z"/>
<path style="fill:#2f2f2f; stroke:none;" d="M391 399L393 407L394 407L393 399L391 399z"/>
<path style="fill:#d8d8d8; stroke:none;" d="M606 406L606 400C595.672 398.118 596.814 405.706 606 406z"/>
<path style="fill:#313131; stroke:none;" d="M343 400L343 424L355 432L355 409L365 409L365 408C358.997 408 352.177 409.381 351 402L343 400z"/>
<path style="fill:#848484; stroke:none;" d="M397 400L398 404L399 404L397 400z"/>
<path style="fill:#1d1d1d; stroke:none;" d="M427 400L420 401L420 408L399 408L399 409L402 409L399 431L419 431C420.253 425.793 422.765 424.171 428 424C428.021 416.339 431.164 406.951 427 400z"/>
<path style="fill:#4f4f4f; stroke:none;" d="M344 401L344 402L350 402L344 401z"/>
<path style="fill:#e5e5e5; stroke:none;" d="M352 401L352 406L357 406L357 403C365.153 403.238 382.997 409.886 389 402C381.667 402 356.561 397.285 354 405L353 405L352 401z"/>
<path style="fill:#c6c6c6; stroke:none;" d="M437 406L456 406C450.375 401.488 441.228 398.373 437 406z"/>
<path style="fill:#494949; stroke:none;" d="M576 401L576 407L577 407L576 401z"/>
<path style="fill:#bebebe; stroke:none;" d="M589 401L579 406L579 407C581.968 406.519 590.428 404.793 589 401z"/>
<path style="fill:#b1b1b1; stroke:none;" d="M529 406L555 407C549.401 404.629 531.497 398.476 529 406z"/>
<path style="fill:#afaeac; stroke:none;" d="M731 406L731 407L743 405C738.891 400.686 735.355 403.261 731 406z"/>
<path style="fill:#cacaca; stroke:none;" d="M357 403L357 406L385 406L357 403z"/>
<path style="fill:#454545; stroke:none;" d="M486 403L486 407L487 407L486 403z"/>
<path style="fill:#989898; stroke:none;" d="M399 404C400.04 408.853 407.898 407 412 407L412 406L399 404z"/>
<path style="fill:#868686; stroke:none;" d="M529 406L529 407L541 407L529 406z"/>
<path style="fill:#828282; stroke:none;" d="M619 406L619 407L631 407L619 406z"/>
<path style="fill:#8c8c8e; stroke:none;" d="M734 406L734 407L747 407L734 406z"/>
<path style="fill:#1a1a1a; stroke:none;" d="M517 406C510.479 410.941 495.043 408 487 408L487 432L518 431L517 406z"/>
<path style="fill:#818181; stroke:none;" d="M585 406L585 407L593 407L585 406z"/>
<path style="fill:#aaa9a8; stroke:none;" d="M747 406L747 407L758 407L747 406z"/>
<path style="fill:#535353; stroke:none;" d="M352 407L352 408L392 408C381.488 403.589 363.434 407 352 407M399 407L399 408L420 408L399 407z"/>
<path style="fill:#4d4d4d; stroke:none;" d="M438 407L438 408L465 408L438 407z"/>
<path style="fill:#4f4f4f; stroke:none;" d="M487 407L487 408L517 408L487 407z"/>
<path style="fill:#4e4e4e; stroke:none;" d="M524 407L524 408L555 408L524 407z"/>
<path style="fill:#191919; stroke:none;" d="M555 407L525 408C525 413.132 522.751 425.259 526.028 429.397C528.468 432.478 536.524 431 540 431C543.778 431 550.298 432.222 553.566 429.972C558.082 426.864 556.862 411.438 555 407z"/>
<path style="fill:#777777; stroke:none;" d="M577 407L577 408L581 408L577 407z"/>
<path style="fill:#4b4b4b; stroke:none;" d="M581 407L581 408L593 408L581 407z"/>
<path style="fill:#555555; stroke:none;" d="M599 407L599 408L608 408L599 407z"/>
<path style="fill:#1f1f1f; stroke:none;" d="M608 407L599 408C599.659 413.213 597.205 426.613 600.18 430.397C602.348 433.153 607.693 431.997 608.682 428.772C610.296 423.506 610.103 412.011 608 407z"/>
<path style="fill:#4c4c4c; stroke:none;" d="M615 407L615 408L646 408L615 407z"/>
<path style="fill:#525250; stroke:none;" d="M728 407L728 408L758 408L728 407z"/>
<path style="fill:#191919; stroke:none;" d="M355 409L355 432L382 432C384.803 432 389.975 432.918 391.972 430.397C395.449 426.007 392.949 413.113 392 408L355 409z"/>
<path style="fill:#1a1a1a; stroke:none;" d="M577 408L577 432L593 432L593 408L577 408z"/>
<path style="fill:#181008; stroke:none;" d="M563 431L564 431L568 425L569 425L569 432L570 432L570 409C559.491 409.345 563 423.191 563 431z"/>
<path style="fill:#1b120b; stroke:none;" d="M480 433L480 437C481.285 433.708 480.191 430.478 480.039 427C479.923 424.339 480.005 421.663 480 419C479.995 416.624 478.655 405.86 474.027 411.608C469.682 417.005 471.19 434.634 480 433z"/>
<path style="fill:#452918; stroke:none;" d="M568 425L559 436C558.352 440.702 552.911 440.271 549 441L549 442L556 442L556 443L496.004 443.942L473.925 437.318L454 444.741L354 444L357 440L344 437L344 443L359.004 447.811L397 448L451 447.91L473.004 444.019L500 448L499 450L557 449C560.619 443.086 570.907 446.765 576.996 447.019C581.018 447.187 584.074 449.618 588.015 449.942C604.113 451.265 620.842 450 637 450L637 446L642 446L642 445L640 443C643.902 442.873 645.915 442.401 648 439L571 438L568 425z"/>
<path style="fill:#301f14; stroke:none;" d="M472 433L472 437L494.039 443.856L556 443L556 442L549 442L549 441L559 440L559 439L480 437L480 433L472 433z"/>
<path style="fill:#302114; stroke:none;" d="M424 435L424 438L348 438L348 440L357 440L354 444L429 444C443.202 444 456.158 446.451 469 440L469 439C460.088 439 433.869 443.335 429 435L424 435z"/>
<path style="fill:#332318; stroke:none;" d="M726 439L726 440L730 440L730 444C740.703 446.386 750.16 445.02 761 443L761 442L759 441L759 440L761 440L761 438L726 439z"/>
<path style="fill:#72421e; stroke:none;" d="M317 497L317 556L810 556L810 497L317 497z"/>
</svg>
